<svg width="196" height="45" viewBox="0 0 196 45" fill="none" xmlns="http://www.w3.org/2000/svg">
<g clip-path="url(#clip0_41_60)">
<path d="M27.229 7.30183C17.4022 9.75331 8.39961 14.9248 0.0175934 20.4425V43.4017C0.429659 43.497 0.600515 43.3164 0.902027 43.1558C3.21361 41.9338 8.38202 37.1964 10.573 35.2493C15.9098 30.5069 28.8094 17.6448 28.6788 10.4007C28.6561 9.18624 28.2391 8.03451 27.2265 7.29932L27.229 7.30183Z" fill="black"/>
<path d="M61.1993 11.7856H48.0081V44.5307L48.385 44.9071H53.6615L54.0384 44.5307V30.8556H60.6968C64.9908 30.8556 68.8778 26.3641 69.1215 22.2089C69.3828 17.7249 66.1717 11.7856 61.1993 11.7856ZM62.1867 24.0632C61.9154 24.3768 60.2596 25.3353 59.943 25.3353H54.4153L54.0384 24.9589V17.3059H60.4455C60.5184 17.3059 61.5234 17.9206 61.7018 18.0586C63.4053 19.3986 63.6013 22.4397 62.1867 24.0632Z" fill="black"/>
<path d="M195.038 24.9164C192.274 19.5743 183.171 18.6785 179.032 22.8212C178.462 23.3933 176.558 25.8799 177.015 26.5925L182.03 29.0792C184.148 24.5551 190.08 24.6153 189.932 30.1907L189.595 30.6073H182.309C181.862 30.6073 179.339 32.0651 178.909 32.4816C176.183 35.1138 176.344 40.3078 179.048 42.8998C181.889 45.6248 186.912 45.2008 190.337 43.8885L190.854 44.9097H195.628L196.005 44.5333V27.4708C196.005 27.2525 195.221 25.2627 195.043 24.9189L195.038 24.9164ZM185.06 39.397C181.51 39.2213 183.231 35.6232 183.814 35.6232H189.97C189.749 38.5238 187.814 39.5325 185.06 39.397Z" fill="black"/>
<path d="M115.75 22.8512C115.17 23.4309 113.064 26.0655 113.906 26.7731L118.866 28.9887C120.828 24.2363 127.585 24.8812 126.419 30.4918C123.167 30.9886 119.891 29.8118 116.934 31.5582C114.11 33.2243 113.255 36.3708 113.868 39.4847C114.851 44.4931 120.645 45.5771 124.959 44.5884C125.6 44.4404 126.273 43.7303 126.989 43.8834C127.235 43.9361 127.421 44.7992 127.788 44.9046C128.831 45.1982 131.102 44.6888 132.311 44.9046L132.688 44.5282V27.2147C132.688 27.0592 131.896 25.2325 131.728 24.9113C128.926 19.5265 119.934 18.6684 115.753 22.8512H115.75ZM121.743 39.3969C118.311 39.2313 119.946 35.6231 120.497 35.6231H126.652C126.59 38.5363 124.414 39.5274 121.743 39.3969Z" fill="black"/>
<path d="M140.607 21.8226L140.22 20.8189H134.693V44.5308L135.07 44.9072H140.346L140.723 44.5308V28.9738C140.723 27.0894 143.884 26.0481 145.565 26.3968C146.409 26.5725 148.261 28.1859 148.261 28.9738V44.5308L148.638 44.9072H153.914L154.291 44.5308V27.9701C154.291 27.4984 152.997 24.8462 152.643 24.3468C150.075 20.7436 144.454 19.8278 140.607 21.8201V21.8226Z" fill="black"/>
<path d="M175.944 22.2416C176.168 21.7799 176.487 21.3809 176.404 20.8188H156.555V25.9627L156.932 26.3391H165.474L165.743 26.851L155.401 44.1368C155.143 44.3903 155.522 44.9072 155.675 44.9072H175.776L176.153 44.5308V39.3869H166.103C166.005 38.7847 166.236 38.3807 166.469 37.8689C168.821 32.715 173.442 27.398 175.947 22.2416H175.944Z" fill="black"/>
<path d="M108.185 20.8188L102.657 35.3747L96.8781 20.8188H90.7223L100.054 44.2447C100.883 45.5019 103.092 44.6688 104.426 44.9247L114.341 20.8188H108.185Z" fill="black"/>
<path d="M24.641 44.6563H43.2342V22.0735L35.6914 32.7326L24.641 44.6563Z" fill="black"/>
<path d="M77.7347 21.2731C76.9457 21.6193 76.4105 22.5402 75.3954 22.3244V20.8189H69.8677V44.5309L70.2446 44.9072H75.5211L75.898 44.5309V28.9738C75.898 28.758 76.7623 27.5787 77.0186 27.3328C77.9759 26.4144 78.9332 26.1861 80.2372 26.4019C80.7523 26.4872 83.187 27.93 83.187 26.969V21.4487C81.8754 20.4651 79.1694 20.6483 77.7372 21.2756L77.7347 21.2731Z" fill="black"/>
<path d="M83.9383 21.1952V44.5308L84.3152 44.9072H89.5916L89.9685 44.5308V20.8188H84.3152L83.9383 21.1952Z" fill="black"/>
<path d="M40.6915 3.40994C43.9905 10.3077 37.6462 21.5239 33.7416 27.2724C29.4175 33.6408 24.1084 39.3166 18.6108 44.6537L20.7591 44.4178C28.6788 36.4059 36.6588 27.3778 41.2669 16.9722C41.6613 16.0839 43.2317 12.5811 43.2317 11.9086V0.996094H39.2116C39.5005 1.8969 40.2643 2.5242 40.689 3.40994H40.6915Z" fill="black"/>
<path d="M0.394483 0.996094L0.0175934 1.37247V10.782L15.8469 0.996094H0.394483Z" fill="black"/>
<path d="M86.1318 11.3416C84.7222 11.6351 83.481 13.246 83.4835 14.6713C83.4885 18.425 88.5313 19.376 90.1871 16.3951C91.7122 13.645 89.1519 10.7168 86.1318 11.3441V11.3416Z" fill="black"/>
<path d="M0.0200968 17.3059C2.00002 16.4101 3.73874 15.0626 5.62821 14.0012C8.74383 12.2548 11.9951 10.7468 15.2766 9.33412L23.3822 6.5188C19.1535 6.75215 14.8394 8.35553 10.9825 10.0643C9.5554 10.6991 0.341709 15.4189 0.0602983 16.2194C-0.0552811 16.5481 0.0326598 16.9571 0.0200968 17.3059Z" fill="black"/>
<path d="M64.9656 8.3707C66.1466 8.3707 67.1189 8.67683 68.0059 7.83122C68.232 7.61543 68.4808 7.42724 68.4833 7.1161V3.8968L65.4631 3.91938C65.4631 3.91938 65.4631 5.14387 65.4732 5.3421L66.9757 5.35966C66.9581 5.52276 66.9858 6.87271 66.9858 6.87271C66.9858 6.87271 65.1541 6.97057 64.7144 6.86518V1.84678C65.4732 0.710114 66.8702 1.0062 67.4581 2.34109C67.6315 2.73253 68.5134 2.03748 68.5411 1.51055C68.1365 0.730188 66.2069 -1.21695 63.4556 1.09402C63.247 1.30981 63.2043 1.59586 63.2043 1.59586V6.76481C63.2043 7.06843 63.2998 7.36451 63.4832 7.60791C63.7445 7.95919 64.2119 8.3707 64.9631 8.3707H64.9656Z" fill="black"/>
<path d="M49.6388 8.2828C50.3574 8.42834 51.1012 8.43837 51.8223 8.3104C52.5007 8.18996 52.9354 7.76089 53.1766 7.11352C53.463 6.34821 53.3801 5.46246 52.9253 4.76741C52.7695 4.52653 52.5761 4.3283 52.3625 4.15517C51.8273 3.72861 51.1514 3.48019 50.5208 3.21422C50.2971 3.11887 50.076 2.97083 50.0032 2.73998C49.9504 2.57437 49.9831 2.38869 50.0685 2.23814C50.272 1.88685 50.7394 1.69113 51.1389 1.8191C51.6967 1.99475 52.2394 2.63961 52.8273 2.08508C53.0283 1.89689 53.1188 1.59578 53.0535 1.32981C52.9856 1.0538 52.7746 0.832988 52.5459 0.664871C51.9328 0.215725 51.1238 0.0425897 50.3801 0.200669C49.468 0.393878 48.5434 1.14413 48.3675 2.09762C48.2092 2.95828 48.7067 4.30572 49.4956 4.75236C50.0333 5.05597 50.6564 5.05848 51.1489 5.47501C51.4077 5.69582 51.6012 6.01449 51.5987 6.35323C51.5861 7.90391 49.7519 6.36578 49.1941 6.32312C48.8147 6.29552 48.4353 6.55647 48.3248 6.9178C48.081 7.72325 49.0107 8.15734 49.6338 8.2828H49.6388Z" fill="black"/>
<path d="M96.5113 8.39584C97.2299 8.54138 97.9736 8.55141 98.6947 8.42344C99.3731 8.303 99.8078 7.87393 100.049 7.22655C100.335 6.46125 100.253 5.5755 99.7978 4.88045C99.642 4.63957 99.4485 4.44134 99.2349 4.26821C98.6998 3.84164 98.0239 3.59323 97.3932 3.32726C97.1696 3.23191 96.9485 3.08386 96.8756 2.85302C96.8228 2.68741 96.8555 2.50173 96.9409 2.35118C97.1445 1.99989 97.6118 1.80417 98.0113 1.93214C98.5691 2.10778 99.1118 2.75265 99.6998 2.19812C99.9008 2.00993 99.9912 1.70882 99.9259 1.44285C99.8581 1.16683 99.647 0.946025 99.4183 0.777909C98.8053 0.328762 97.9962 0.155627 97.2525 0.313706C96.3404 0.506915 95.4158 1.25717 95.2399 2.21066C95.0816 3.07132 95.5791 4.41876 96.3681 4.8654C96.9058 5.16901 97.5289 5.17152 98.0213 5.58805C98.2801 5.80886 98.4736 6.12752 98.4711 6.46627C98.4585 8.01695 96.6243 6.47881 96.0665 6.43616C95.6871 6.40855 95.3077 6.66951 95.1972 7.03084C94.9535 7.83629 95.8831 8.27038 96.5063 8.39584H96.5113Z" fill="black"/>
<path d="M80.795 8.37319V4.8578C81.9734 4.72983 82.1141 4.91049 82.5513 5.86148C82.7925 6.38841 83.5563 8.37068 83.5563 8.37068H84.8126C84.8126 8.37068 84.4081 6.77232 84.388 6.61424C84.3604 6.37335 83.491 4.49898 83.2699 4.38356C83.6392 4.54666 84.893 3.87921 84.8126 2.3486C84.687 1.04883 83.3804 0.396438 82.9156 0.356291C81.7146 0.253413 80.4734 0.243377 79.2849 0.341235V8.37319H80.795ZM80.795 1.59584H82.8051C83.398 1.84676 83.4533 3.36733 82.8051 3.6032H80.795V1.59584Z" fill="black"/>
<path d="M71.6466 7.74843C71.8929 8.08466 72.3451 8.40333 72.7597 8.4234C73.5009 8.45853 74.2246 8.36318 74.9683 8.38325C76.4356 8.4234 76.5286 7.40216 76.6367 7.01574C76.8527 6.24793 76.7723 0.33374 76.7723 0.33374L75.0361 0.371378L75.001 6.37088C75.001 6.62431 74.7949 6.83006 74.5411 6.83257L73.2371 6.84762C72.9783 6.85013 72.7673 6.64187 72.7673 6.38593L72.7497 0.336249C72.3024 0.336249 71.4532 0.351305 71.0084 0.351305C70.9707 2.0124 71.0763 6.38593 71.114 6.83006C71.1341 7.06592 71.5059 7.55522 71.6466 7.74843Z" fill="black"/>
<path d="M60.6214 6.86523H57.4128C57.4128 6.86523 57.5158 5.3296 57.4254 4.85536H59.9405V3.60076H57.4254L57.3776 1.84683L60.6942 1.80166V0.341309H55.9203L55.9077 8.37075H60.5988L60.6214 6.86523Z" fill="black"/>
<path d="M89.9409 8.43338C91.4761 8.43338 92.7223 7.18882 92.7223 5.6557V2.86045C92.7223 1.32733 91.4761 0.0827637 89.9409 0.0827637C88.4057 0.0827637 87.1594 1.32733 87.1594 2.86045V5.6557C87.1594 7.18882 88.4057 8.43338 89.9409 8.43338ZM88.7248 2.51167C88.7248 2.00732 89.1343 1.59832 89.6394 1.59832H90.2977C90.8027 1.59832 91.2122 2.00732 91.2122 2.51167V6.23783C91.2122 6.74218 90.8027 7.15118 90.2977 7.15118H89.6394C89.1343 7.15118 88.7248 6.74218 88.7248 6.23783V2.51167Z" fill="black"/>
</g>
<defs>
<clipPath id="clip0_41_60">
<rect width="196" height="45" fill="white"/>
</clipPath>
</defs>
</svg>
