<svg width="135" height="50" viewBox="0 0 135 50" fill="none" xmlns="http://www.w3.org/2000/svg">
<path d="M26.6745 43.1687C31.3053 41.5037 36.3367 37.1469 37.8521 32.353L36.0206 34.7456C26.4818 44.9888 9.77273 40.0354 8.88943 25.514C7.64675 5.07129 30.7662 -3.19232 43.7992 11.2635L47.3649 16.372C45.555 10.2322 40.3808 4.83095 34.6047 2.25266C18.4823 -4.9403 1.05232 5.88848 0.0391201 23.4383C-0.00634379 24.2249 -0.0193335 25.2671 0.0391201 26.0471C1.03283 39.2707 14.3256 47.6064 26.6745 43.1687Z" fill="black"/>
<path d="M36.8562 7.3808C27.1075 2.60443 14.6244 7.03557 10.8465 17.3531C14.5161 11.7398 20.3074 8.60439 27.101 9.80395C33.6023 10.9511 39.0125 16.6517 39.5819 23.3334C41.4329 45.0674 16.2416 53.8161 3.40778 37.3326L0.90726 33.4389C3.15448 41.2546 10.3876 47.4075 18.19 49.1992C19.528 49.5073 21.4461 49.87 22.7299 49.9574C23.5678 50.0142 24.7022 50.0142 25.5401 49.9574C35.8777 49.2473 44.6219 42.0718 47.3043 31.9641C50.03 21.6903 46.4924 12.0982 36.8584 7.3808H36.8562Z" fill="black"/>
<path d="M56.3256 28.8767C59.0015 29.1826 62.2013 28.6341 64.94 28.8832L65.5137 27.3516H60.6512C60.4109 27.3516 60.3438 26.908 60.3676 26.6524C60.4802 25.3916 61.3981 23.4841 61.6536 22.1666C62.1493 21.8476 65.7778 22.4201 66.6741 22.1076C67.0898 21.9634 67.1287 21.0282 67.2413 20.6131H62.0563L62.9071 17.4492C63.5111 17.0231 67.0248 17.6546 67.9709 17.3269C68.3866 17.1827 68.4255 16.2475 68.5381 15.8323H58.1658L55.2388 26.6895C55.0353 27.9393 54.8491 28.7106 56.3256 28.8789V28.8767Z" fill="black"/>
<path d="M71.1318 28.8723L74.5892 15.8323H69.6185L66.161 28.8723H71.1318Z" fill="black"/>
<path d="M119.752 28.8723L123.21 15.8323H118.564L114.998 28.8723H119.752Z" fill="black"/>
<path d="M115.647 34.9597C116.05 34.1622 115.396 33.8694 114.699 34.1141C114.223 34.2824 113.718 37.9007 113.487 38.6545C115.277 38.9888 114.719 38.0667 115.208 36.7995C115.647 35.6589 115.918 35.0012 117.267 34.951C117.674 34.9357 117.812 34.8111 117.817 35.2875C117.823 36.3821 117.122 37.5336 117.161 38.6545C117.444 38.6043 118.345 38.7441 118.449 38.6458C118.564 38.5343 119.096 35.79 119.113 35.495C119.239 33.1942 116.849 34.1272 115.652 34.9597H115.647Z" fill="black"/>
<path d="M75.4746 34.1119C75.2062 34.3413 74.7862 39.0893 72.5238 37.798C72.0778 37.1534 73.2231 34.9728 73.0759 34.0922C72.7749 34.1053 72.4177 34.0289 72.1341 34.1228C71.6297 34.2889 70.8633 37.9203 71.1621 38.4076C72.4307 38.9822 73.5651 38.6086 74.587 37.787L74.3727 38.6545C74.7472 38.6217 75.3794 38.7725 75.6825 38.5605C76.0094 38.3311 76.5571 34.7652 76.7498 34.0922C76.4489 34.149 75.6262 33.983 75.4746 34.1119Z" fill="black"/>
<path d="M56.1676 34.4681C56.5183 35.2743 59.1098 36.8126 57.603 37.763C56.488 38.4644 55.8169 37.4244 55.2561 37.5686C54.4421 37.7783 55.1999 38.5256 55.91 38.6414C57.4687 38.8949 59.9627 38.5518 59.4128 36.428C59.1466 35.4011 56.6136 34.136 57.8606 33.2379C58.7244 32.6152 59.9692 33.8825 60.11 32.5693C58.7374 31.9597 55.3081 32.4907 56.1676 34.4681Z" fill="black"/>
<path d="M104.842 35.1782H102.682C102.597 35.0952 103.058 33.3035 103.141 33.2489C103.786 32.825 105.974 34.007 105.489 32.3508H101.816C101.69 34.2911 100.625 36.4433 100.517 38.3311C100.484 38.8992 101.701 38.7375 101.839 38.53C102.097 38.1454 102.21 36.0413 102.491 35.8577C102.788 35.6633 104.338 35.9386 104.84 35.8293V35.1782H104.842Z" fill="black"/>
<path d="M97.2822 34.1862C96.9791 34.3741 95.7624 36.3865 95.3965 36.8584C95.2579 37.0376 95.4008 37.2561 94.9029 37.1316C94.7448 35.7572 95.1908 33.3494 93.1731 34.3129C93.2835 35.4185 94.3097 37.5926 93.7966 38.5147C93.6537 38.7703 91.1727 41.1104 93.0345 40.7827C93.4935 40.7018 97.6394 35.0711 98.3603 34.3086C98.0334 34.3785 97.5809 34.0005 97.2822 34.184V34.1862Z" fill="black"/>
<path d="M124.29 34.0901H120.724C120.497 34.0901 120.272 34.8308 120.402 34.9575C120.545 35.0973 122.209 34.7718 122.56 35.0668C121.283 36.1265 119.843 37.337 118.888 38.6545H123.426V38.0034C122.82 37.9684 122.194 38.0471 121.586 38.0034C121.35 37.9859 120.867 38.1235 121.051 37.68C121.276 37.1403 124.926 34.7106 124.29 34.0901Z" fill="black"/>
<path d="M130.642 35.6152C130.906 36.5373 132.369 36.6924 132.051 37.6538C131.778 38.4753 130.116 37.6363 129.927 37.7958C129.901 37.8177 129.672 38.4054 129.691 38.4338C130.036 38.9101 134.054 38.908 133.497 37.1272C133.203 36.1855 131.56 35.755 132.084 34.7543C132.185 34.6756 134.411 35.1738 133.796 34.3086C133.493 33.8825 130.131 33.8366 130.642 35.6152Z" fill="black"/>
<path d="M87.2173 34.7281C86.2972 35.8512 87.9837 36.3013 88.4016 37.0638C89.287 38.6829 86.7302 37.7084 86.3968 37.7674C86.2734 37.7893 86.0201 38.4032 86.0418 38.4338C86.2951 38.7944 90.4171 39.0893 89.8456 37.1272C89.6464 36.4411 88.2284 35.7376 88.4189 35.0711C88.631 34.337 90.1487 35.412 90.363 34.3086C89.3022 34.1054 88.0205 33.747 87.2173 34.7259V34.7281Z" fill="black"/>
<path d="M81.2875 34.6297C81.5148 33.5831 79.5101 34.3653 79.1572 34.9072C79.5989 34.1512 78.5489 33.8125 78.0726 34.1184C77.8626 34.2539 77.1416 38.0623 76.9663 38.6523C79.0771 39.1985 78.2479 36.9393 79.1226 35.7157C79.7093 34.8963 81.1273 35.3617 81.2875 34.6297Z" fill="black"/>
<path d="M105.896 34.2146C105.474 34.8395 105.303 37.7477 104.842 38.6523C105.241 38.6239 106.007 38.8009 106.256 38.4469C106.581 37.9815 106.901 34.881 107.219 34.0922C106.873 34.1512 106.096 33.9262 105.899 34.2168L105.896 34.2146Z" fill="black"/>
<path d="M106.139 33.1046C106.399 34.0049 108.12 33.0172 107.648 32.3552C107.351 31.9379 105.879 32.2022 106.139 33.1046Z" fill="black"/>
<path d="M14.4036 25.1819C13.7671 25.3414 13.9208 24.7711 13.7367 24.7515C13.477 24.7252 12.9855 25.0137 12.572 24.7449C12.388 26.0756 12.6738 25.6364 13.2778 26.0472C13.399 26.1302 13.4077 26.3662 13.4986 26.4208C13.6805 26.53 13.9749 26.4448 14.2304 26.5563C14.3105 26.5912 14.2996 27.1375 15.0249 26.919C15.1764 26.8731 15.1418 26.5126 15.2955 26.4907C15.9537 26.3989 17.2959 26.978 18.1879 26.4863L17.9714 27.1353L18.6209 27.5701L17.9736 28.0049C18.8157 28.4528 18.9543 27.3232 19.9155 27.5723L19.2704 28.2212C19.9631 28.868 20.6581 28.3632 21.0889 28.4485C21.5176 28.5315 21.5024 29.2307 21.0954 29.3006C20.9352 29.3268 20.5282 29.104 20.2403 29.0952C19.6406 29.0799 18.5992 29.2132 18.1251 29.0974C17.8805 29.0362 17.7419 28.2671 17.4323 28.2737C17.3327 28.2737 17.1617 28.5621 17.0037 28.5752C16.7893 28.5927 16.4516 28.2605 16.1182 28.2256C15.5964 28.171 14.1676 28.3414 13.8688 28.8745C15.1158 29.0297 16.6183 28.9423 16.6789 30.6138C15.4579 30.3101 15.5402 31.3457 16.4581 31.6145C17.0231 31.7806 17.389 31.4637 17.6402 31.5162C17.874 31.5664 17.9173 32.0056 18.1316 32.1542C18.6447 32.5103 19.2162 31.8789 19.5799 31.9051C19.777 31.9204 19.7791 32.4885 20.0411 32.5715C20.4459 32.6983 20.7079 32.2132 20.9352 32.176C21.195 32.1323 21.8098 32.7878 22.2991 32.5737V37.3566H24.8927V31.9226C24.8927 31.8352 26.1462 31.2474 26.4883 31.3217C26.7286 31.3742 26.8823 31.7434 27.0685 31.8002C27.6227 31.9685 28.2138 31.9663 28.7831 32.0296C29.5582 32.117 28.9737 32.2918 30.0172 32.0056C30.1665 31.9641 30.3982 32.1302 30.4718 32.0843C30.5541 32.0318 30.5757 31.6997 30.7316 31.6145C31.0455 31.4441 31.4655 31.4834 31.7167 31.2889C32.6974 30.522 31.2122 29.3552 30.4242 29.5213C30.2835 29.5497 30.2878 29.9539 30.1839 29.9714C29.2941 30.1178 29.4131 29.1892 29.7963 29.093C30.3549 28.9532 32.7428 29.8687 32.6281 28.3982C32.4787 26.4863 31.7231 27.6793 30.6277 27.5701C30.2272 27.5308 29.7963 26.9364 29.2161 27.1397C29.0884 27.5635 29.7141 27.7711 29.6491 28.112C29.6037 28.3436 29.1555 28.514 28.8936 28.4419C28.3588 28.2955 28.82 27.6007 28.7853 27.5767C28.5472 27.4171 27.3781 27.959 27.705 27.0348C27.8609 26.5934 29.3287 27.0741 29.7682 26.6961C30.6125 27.12 32.0133 26.624 32.5415 26.6917C32.6801 26.7092 32.6736 27.0544 32.719 27.0785C33.2797 27.3953 35.8106 25.667 35.8885 24.8236C35.9773 23.8534 34.4986 25.1579 34.8342 23.8775C34.3666 23.7245 34.1219 24.4696 33.8686 24.474C33.7755 24.474 32.6368 23.9845 32.1063 23.9059C31.5088 23.8163 30.8961 23.9059 30.2986 23.8775C30.4761 22.4572 32.2622 23.1936 33.2126 23.0057C33.6803 22.9139 33.7993 22.5031 34.1241 22.4004C34.451 22.2955 34.8234 22.4113 35.2109 22.289C35.5464 22.1841 35.8322 21.3407 35.711 20.9583C35.5291 20.3859 31.4828 20.7311 30.7294 20.8338L32.167 20.0297C33.2906 20.4667 33.152 19.8221 33.5352 18.8804C32.7775 19.1623 32.7125 18.5374 32.5134 18.4565C32.2795 18.3604 31.8292 18.5243 31.5738 18.3538C31.1862 18.096 31.8963 17.1106 30.199 17.163C29.9306 17.1718 29.6838 17.3225 29.4305 17.3597C29.3352 18.3691 28.2614 18.297 27.4863 18.2271C26.8953 17.753 29.2118 17.3903 29.4305 17.3597C29.4608 17.0494 29.1447 16.3458 29.214 16.2737C29.3179 16.1645 30.1016 16.5316 29.8613 15.8389L28.5667 15.8345L29.6491 15.3997L29.1663 14.3772L27.9215 14.0975C28.3653 15.7471 27.469 14.1019 27.3803 14.0997C27.3413 14.0997 27.1768 14.4012 26.9559 14.423C26.7113 14.4471 26.4277 14.2657 26.1354 14.3444C25.8172 14.4296 25.5292 14.9584 25.4361 14.9606C25.3171 14.9627 24.988 14.4842 25.1136 14.316C25.172 14.2373 27.1096 14.056 26.0878 13.2213C25.7847 12.9744 25.4751 13.0858 25.2868 12.9853C25.0854 12.8783 25.0962 12.6161 24.9598 12.5811C23.8059 12.2992 23.0872 12.9089 22.1432 13.1732C21.7211 13.2912 21.2361 13.1754 20.7772 13.3218C20.2035 13.5032 19.6969 14.4034 18.9413 14.5192C18.4802 15.1485 19.6969 15.3604 19.2747 15.8345C18.9456 16.2038 18.4607 15.0982 18.3524 15.0283C17.7852 14.6634 16.2957 14.9846 16.2762 15.509C16.2762 15.5549 17.0102 16.1907 16.3563 16.2715C15.8194 16.3371 15.3172 15.4303 15.1721 16.9227H16.0359L15.8216 17.5738L17.3327 17.1412C17.5536 17.7071 16.9344 17.5366 16.8954 17.6809C16.6703 18.5177 18.058 18.3516 18.19 18.9984C18.2442 19.265 17.8783 19.5927 17.7701 19.5272C17.7181 19.4966 17.6813 18.8673 16.9517 18.7056C16.588 18.6248 16.3369 18.8826 16.2546 18.8782C16.2914 18.9044 16.5122 19.7085 16.4689 19.7457C15.1223 20.0559 15.5878 18.97 16.0338 18.8455C15.5402 18.7602 14.4988 18.5417 14.3711 18.5898C14.1373 18.6772 14.1178 18.9809 14.029 19.029C13.7995 19.1514 13.4748 19.029 13.2864 19.1448C13.2258 19.1819 12.4573 20.2919 12.5828 20.3968C13.6069 20.9387 14.4187 19.7806 15.0487 19.9751C16.3931 20.3859 13.6437 21.1506 13.6631 21.8127C14.2455 21.9722 14.423 21.8258 14.3126 22.5709C16.1875 20.5803 14.4772 22.5949 15.8216 22.7872C15.7004 21.71 16.1507 21.5985 17.1184 21.7012L16.4732 22.7872C16.9322 22.4092 17.257 22.9205 17.4431 22.9226C18.0082 22.927 18.2182 21.7646 18.6339 23.4405C19.0885 23.447 20.6494 23.6022 20.145 24.3101C19.8462 24.0195 18.7919 23.9714 18.6555 23.8469C18.5646 23.7639 18.6598 23.5475 18.6339 23.4405C17.8913 23.4317 17.6358 23.7595 17.2007 23.8097C16.7482 23.8622 16.0034 23.5759 15.3951 23.8753C15.6592 22.2322 14.436 23.3225 13.451 23.222C13.1414 23.7682 15.0963 24.0501 15.1764 24.7405C14.633 24.5067 14.462 25.1688 14.4165 25.1797L14.4036 25.1819ZM33.533 20.8338C33.4161 21.3669 32.8403 21.0894 32.4549 21.2664C32.2839 20.565 32.9528 20.884 33.533 20.8338ZM25.5401 27.3516C25.1222 26.9255 26.4753 26.5694 26.6182 26.7005C27.0642 27.1156 25.5942 27.4062 25.5401 27.3516ZM26.1874 28.0027C25.6699 27.6029 27.4236 27.3013 27.482 27.3516C27.954 27.7864 26.445 28.1273 26.1874 28.0027ZM28.6727 23.4361C28.939 23.4077 29.6794 23.5126 29.818 23.7136C30.0518 24.0566 29.4868 24.592 30.5064 24.0894C30.4848 24.2664 30.5519 24.6925 30.5064 24.7405C30.3874 24.8673 27.9345 24.1266 28.6727 23.4361ZM27.049 22.3524C26.1874 22.0792 26.0964 21.7974 25.9709 22.6233C25.9276 22.9139 25.3474 22.809 25.3236 22.785C24.8603 22.3196 27.1356 20.3334 27.049 22.3502V22.3524ZM25.1071 23.8753C25.5141 23.7551 25.6743 23.9277 25.9536 24.0435C26.1094 24.1069 26.7979 24.4259 26.6182 24.7449C26.6485 24.6947 26.8845 24.6663 26.9278 24.5395C27.0274 24.2467 26.5749 23.2132 27.5903 23.4427C28.4 23.6262 27.2525 24.1572 27.259 24.2118C27.2763 24.4084 27.4842 24.5745 27.5426 24.7537C27.6032 24.935 27.4669 25.1644 27.4842 25.1754C27.9453 25.4703 27.8609 24.8061 28.1835 24.6772C28.558 24.5264 29.6167 24.5155 29.4305 25.1775C29.2486 25.2234 28.8568 25.0595 28.781 25.289C28.6294 25.7434 29.6946 25.6058 29.214 26.0472C29.0927 26.1586 26.5359 25.2868 25.9752 25.6102C26.4342 25.2693 26.4363 25.0552 26.6225 24.7427C26.248 24.6815 25.0031 24.474 25.1114 23.8753H25.1071ZM17.9757 20.8316L19.0539 21.9175C18.5364 21.5658 17.7636 21.6816 17.9757 20.8316ZM19.7034 21.4805C19.1968 21.5942 19.3548 21.4084 19.2141 21.1987C18.4888 20.1062 19.3938 19.4638 19.8246 20.3946C19.8917 20.541 19.3981 21.0851 19.7034 21.4784V21.4805ZM22.2948 31.6997V32.1323H21.6496V31.6997H22.2948ZM20.5693 21.1594C20.7425 20.2985 21.7038 21.8607 21.6496 21.9154C21.2318 22.0399 20.4871 21.5789 20.5693 21.1594ZM19.056 24.5264C19.2747 24.3188 20.0346 25.0858 20.1363 25.3917C19.7055 25.6276 18.7854 24.7821 19.056 24.5264ZM17.7592 23.8753C18.1164 23.5213 18.5646 24.7034 18.623 24.959C18.1792 25.1732 17.599 24.0348 17.7592 23.8753ZM16.6768 24.7449C16.7893 25.3654 16.5209 25.0989 16.2005 25.2322C15.7437 25.4223 15.2392 25.6058 14.7326 25.6124C14.7218 24.6947 16.1269 24.8804 16.6746 24.7449H16.6768Z" fill="black"/>
<path d="M79.2351 28.8723C79.8262 28.2015 80.8762 22.4288 81.2031 22.337L83.6646 22.3501L82.1513 28.8701H87.3364C87.2693 27.3057 88.6418 24.9481 88.605 23.5388C88.5834 22.7107 87.4338 22.4834 87.7694 22.136C87.8841 22.0158 88.7068 22.0901 89.2307 21.1047C89.4667 20.6612 90.2656 17.9081 90.324 17.4033C90.4409 16.383 89.8954 15.9394 88.9623 15.828C87.8322 15.6925 78.2847 15.6226 77.8214 15.9328L74.3727 28.8745H79.2351V28.8723ZM82.3895 17.3749C82.5713 17.2176 84.5025 17.4427 84.9636 17.3531C85.1888 17.5847 84.5393 20.2853 84.2124 20.6196C83.7599 21.0829 82.1903 20.7223 81.5062 20.8294C81.7833 20.3465 82.2552 17.4907 82.3895 17.3749Z" fill="black"/>
<path d="M112.729 28.8723C112.915 28.8723 113.643 28.42 113.825 28.2343C114.472 27.5701 115.866 22.2955 115.602 21.4171C115.552 21.2555 115.193 20.8294 115.108 20.8294H108.735L110.032 15.8301H105.061L101.603 28.8723H112.731H112.729ZM108.185 22.5643C108.512 22.1207 110.088 22.4463 110.677 22.3523C110.859 22.538 109.75 26.8796 109.495 27.1418C109.055 27.5919 107.654 27.2532 107.003 27.3516C106.825 27.1811 108.04 22.7631 108.185 22.5643Z" fill="black"/>
<path d="M102.197 21.1003C101.958 20.86 101.404 20.8512 101.069 20.8228C98.7933 20.6306 94.4504 20.6131 92.1902 20.8228C91.4671 20.8906 91.0471 20.9889 90.5751 21.5898C90.0036 22.3174 88.5336 27.723 88.9579 28.444C89.1766 28.8133 89.8542 28.8505 90.2461 28.8854C92.3201 29.0711 97.1024 29.1214 99.1202 28.881C101.229 28.6276 101.558 25.9422 101.971 24.1418C102.147 23.3727 102.798 21.7099 102.197 21.1025V21.1003ZM96.2127 27.0391C95.7104 27.6159 94.5326 27.2663 93.8204 27.3516C93.6385 27.1658 94.747 22.8243 95.0024 22.5621C95.4398 22.112 96.8448 22.4485 97.4943 22.3523C97.6653 22.5227 96.4768 26.7332 96.2105 27.0391H96.2127Z" fill="black"/>
<path d="M134.296 20.8731L124.411 20.8425C123.777 20.943 123.127 21.5155 122.829 22.077C122.558 22.5883 121.348 26.9451 121.311 27.5198C121.274 28.0726 121.562 28.5839 122.064 28.8308L132.133 28.8264C133.106 28.4724 133.822 27.5416 133.801 26.4819H129.046C128.994 26.4819 129.035 27.1374 128.464 27.31C128.02 27.4433 126.295 27.5526 126.318 26.9036C126.321 26.8359 126.602 25.6123 126.669 25.6123H134.231C134.138 24.4564 135.959 21.3734 134.298 20.8731H134.296ZM129.663 24.0631C129.442 24.2074 127.526 24.1047 127.096 23.9801C127.338 22.3938 127.821 22.1753 129.38 22.3436C130.531 22.4659 129.789 23.9823 129.663 24.0653V24.0631Z" fill="black"/>
<path d="M70.5927 34.0901C69.5037 33.9065 69.6769 34.4222 69.573 34.4725C69.4128 34.5533 68.4256 34.0202 67.6202 34.1382C64.3988 34.6101 64.1931 39.6727 67.6851 38.5562C67.9168 38.4819 68.917 37.5183 68.7416 38.3158C68.5165 39.3406 67.5336 40.1447 66.4814 40.1359C65.6782 40.1294 64.5698 39.1265 64.6456 40.6101C66.2519 40.8635 67.9688 41.1891 69.1811 39.8475C69.9497 38.9976 70.7594 35.6174 70.9044 34.4025C70.9585 33.9524 70.8936 34.1403 70.5905 34.0879L70.5927 34.0901ZM66.7953 37.9094C66.1459 36.865 66.8473 34.9947 68.051 34.774C68.3086 34.7281 69.0512 34.8264 69.1551 34.9925C69.7613 35.9604 68.2783 38.7135 66.7953 37.9094Z" fill="black"/>
<path d="M112.116 34.0922C111.956 34.1294 111.967 34.4528 111.928 34.4724C111.655 34.6123 111.131 34.1512 110.77 34.0966C107.494 33.5984 105.823 39.2444 109.689 38.6436C110.33 38.5431 110.523 38.0405 111.108 38.0034L110.893 38.6523C111.261 38.6195 111.915 38.7681 112.203 38.5605C112.409 38.412 113.106 34.6975 113.268 34.0901C112.9 34.125 112.465 34.0114 112.116 34.0901V34.0922ZM109.148 37.9094C108.499 36.865 109.2 34.9946 110.404 34.774C110.662 34.7281 111.404 34.8264 111.508 34.9925C112.101 35.9407 110.586 38.7069 109.148 37.9094Z" fill="black"/>
<path d="M128.754 34.0922C128.594 34.1294 128.605 34.4528 128.566 34.4724C128.293 34.6123 127.769 34.1512 127.407 34.0966C124.132 33.5984 122.461 39.2444 126.327 38.6436C126.968 38.5431 127.161 38.0405 127.745 38.0034L127.531 38.6523C127.864 38.5933 128.57 38.7725 128.797 38.6261C128.992 38.4994 129.772 34.6887 129.906 34.0901C129.538 34.125 129.103 34.0114 128.754 34.0901V34.0922ZM125.786 37.9094C125.139 37.0245 125.857 35.0515 126.821 34.7783C127.113 34.6953 128.029 34.8046 128.146 34.9925C128.737 35.9451 127.223 38.7047 125.786 37.9094Z" fill="black"/>
<path d="M83.1754 34.1425C80.8654 34.5227 79.5382 37.6603 81.9955 38.4862C86.6176 40.0398 87.9686 33.3537 83.1754 34.1425ZM83.1212 38.1344C81.6188 38.0689 81.885 35.1017 83.3897 34.7805C85.6607 34.2976 84.903 38.2109 83.1212 38.1344Z" fill="black"/>
<path d="M61.409 36.6989C62.1883 36.7732 64.2797 36.5547 64.8079 35.991C65.0201 35.766 65.1348 35.1607 65.0915 34.857C64.8621 33.2794 60.1728 34.1403 60.0927 36.806C60.0126 39.4236 62.7144 38.7659 64.4334 38.2175C63.5869 37.1884 61.37 39.0347 61.409 36.6989ZM64.0004 35.0711C64.1693 35.8621 62.1234 36.251 61.6255 36.0434C61.6125 35.0908 63.8099 34.1775 64.0004 35.0711Z" fill="black"/>
</svg>
