<svg width="170" height="50" viewBox="0 0 170 50" fill="none" xmlns="http://www.w3.org/2000/svg">
<path d="M13.3024 5.74205C-0.137581 4.1997 -0.0313778 19.5888 -6.06903 27.828C-10.1313 33.3725 -18.3355 35.6086 -17.4115 43.1942C-22.419 43.6185 -25.3715 40.1152 -23.3642 34.8288C-22.0898 31.4689 -13.5298 25.9474 -10.8376 22.1517C-7.40719 17.3183 -6.6266 11.3725 -3.91842 6.30395C0.499638 -1.94677 8.37992 -2.06144 13.3024 5.74205Z" fill="black"/>
<path d="M19.6535 17.6622C10.1217 12.1121 6.76569 29.0091 3.13885 35.4193C-0.843777 42.4602 -4.55027 45.3672 -12.643 44.3237C-13.1421 40.5681 -9.39845 39.3526 -7.33811 37.2426C0.993538 28.6938 -0.0313225 23.5736 5.2576 14.9961C9.69159 7.8061 19.4092 7.8577 19.6535 17.6622Z" fill="black"/>
<path d="M0.0695839 45.4532L6.65418 39.1805C10.4297 34.1865 11.3909 18.786 19.6747 22.467C21.9634 34.3872 10.8917 45.3786 0.0695839 45.4532Z" fill="black"/>
<path d="M49.1089 13.1957L48.2115 15.4032H47.0061L50.7125 6.57339H51.8702L55.5873 15.4032H54.3606L53.4632 13.1957H49.1089ZM53.049 12.1809L51.286 7.85199L49.5231 12.1809H53.049Z" fill="black"/>
<path d="M56.0493 14.3941L56.4794 13.4079C57.0848 13.9985 58.1255 14.4285 59.177 14.4285C60.5895 14.4285 61.2001 13.838 61.2001 13.0639C61.2001 10.9081 56.2458 12.2669 56.2458 8.98729C56.2458 7.62268 57.2281 6.46449 59.3788 6.46449C60.3346 6.46449 61.3276 6.7397 62.0073 7.24426L61.6196 8.25338C60.9081 7.76029 60.1009 7.53668 59.3788 7.53668C57.9875 7.53668 57.3928 8.16738 57.3928 8.93569C57.3928 11.0915 62.3471 9.74413 62.3471 12.9836C62.3471 14.331 61.3435 15.495 59.1823 15.495C57.9344 15.495 56.7077 15.042 56.0493 14.3826V14.3941Z" fill="black"/>
<path d="M69.9885 15.3975H64.0517V6.56765H69.8239V7.66278H65.22V10.3748H69.3194V11.447H65.22V14.2966H69.9885V15.3975Z" fill="black"/>
<path d="M77.5129 10.9367H78.6334V14.3827C77.8156 15.128 76.6846 15.5064 75.5376 15.5064C73.0259 15.5064 71.1779 13.6029 71.1779 10.9883C71.1779 8.37379 73.0259 6.47023 75.5588 6.47023C76.8545 6.47023 77.9537 6.93465 78.7024 7.83483L77.9802 8.61461C77.3005 7.90937 76.5306 7.59402 75.6066 7.59402C73.7162 7.59402 72.3462 9.0217 72.3462 10.9883C72.3462 12.955 73.7109 14.3827 75.596 14.3827C76.2863 14.3827 76.9288 14.2164 77.5129 13.815V10.9367Z" fill="black"/>
<path d="M80.7947 11.5903V6.56765H81.9629V11.5387C81.9629 13.4939 82.7913 14.3769 84.2622 14.3769C85.7331 14.3769 86.5775 13.4939 86.5775 11.5387V6.56765H87.7085V11.5903C87.7085 14.1533 86.4128 15.5007 84.2516 15.5007C82.0904 15.5007 80.7947 14.1533 80.7947 11.5903Z" fill="black"/>
<path d="M95.5728 15.4032L93.8098 12.6912C93.6452 12.7027 93.4699 12.7141 93.2947 12.7141H91.2715V15.4032H90.1033V6.57339H93.2947C95.4188 6.57339 96.7038 7.73159 96.7038 9.65236C96.7038 11.017 96.0507 11.9974 94.9037 12.4389L96.8419 15.4032H95.5674H95.5728ZM95.5356 9.64663C95.5356 8.38523 94.755 7.66852 93.2575 7.66852H91.2715V11.6419H93.2575C94.755 11.6419 95.5356 10.908 95.5356 9.64663Z" fill="black"/>
<path d="M99.4599 13.1957L98.5625 15.4032H97.3571L101.064 6.57339H102.221L105.938 15.4032H104.712L103.814 13.1957H99.4599ZM103.4 12.1809L101.637 7.85199L99.8741 12.1809H103.4Z" fill="black"/>
<path d="M107.149 6.56765H110.595C113.224 6.56765 115.013 8.35655 115.013 10.9826C115.013 13.6086 113.224 15.3975 110.595 15.3975H107.149V6.56765ZM110.526 14.3023C112.549 14.3023 113.845 12.9664 113.845 10.9826C113.845 8.99872 112.549 7.66278 110.526 7.66278H108.317V14.2966H110.526V14.3023Z" fill="black"/>
<path d="M116.134 10.9826C116.134 8.39672 117.982 6.46449 120.493 6.46449C123.005 6.46449 124.826 8.37952 124.826 10.9826C124.826 13.5857 122.979 15.5007 120.493 15.5007C118.008 15.5007 116.134 13.5685 116.134 10.9826ZM123.658 10.9826C123.658 9.02743 122.304 7.58828 120.493 7.58828C118.683 7.58828 117.302 9.02743 117.302 10.9826C117.302 12.9378 118.656 14.3769 120.493 14.3769C122.331 14.3769 123.658 12.9378 123.658 10.9826Z" fill="black"/>
<path d="M132.08 15.4032L130.317 12.6912C130.153 12.7027 129.977 12.7141 129.802 12.7141H127.779V15.4032H126.611V6.57339H129.802C131.926 6.57339 133.211 7.73159 133.211 9.65236C133.211 11.017 132.558 11.9974 131.411 12.4389L133.349 15.4032H132.075H132.08ZM132.043 9.64663C132.043 8.38523 131.262 7.66852 129.765 7.66852H127.779V11.6419H129.765C131.262 11.6419 132.043 10.908 132.043 9.64663Z" fill="black"/>
<path d="M135.967 13.1957L135.07 15.4032H133.864L137.571 6.57339H138.729L142.446 15.4032H141.219L140.322 13.1957H135.967ZM139.907 12.1809L138.144 7.85199L136.381 12.1809H139.907Z" fill="black"/>
<path d="M33.8422 0H32.4456V50H33.8422V0Z" fill="black"/>
<path d="M56.4741 23.5565C58.3167 23.5565 59.8673 24.2216 61.2214 25.6837L63.2392 23.5565C61.6143 21.5669 59.2088 20.5291 56.3307 20.5291C50.9462 20.5291 47.0114 24.5369 47.0114 30.0871C47.0114 35.6373 50.9462 39.6451 56.2829 39.6451C58.715 39.6451 61.2267 38.8481 63.0215 37.2828V29.875H55.9271V32.0882H59.9947V35.6659C58.8902 36.354 57.6848 36.6235 56.4528 36.6235C52.8154 36.6235 50.2293 33.8599 50.2293 30.0928C50.2293 26.3258 52.8101 23.5622 56.4741 23.5622V23.5565Z" fill="black"/>
<path d="M70.6363 31.3657H78.9467V28.5218H70.6363V23.6883H80.0087V20.7929H67.4396V39.3813H80.3486V36.4858H70.6363V31.3657Z" fill="black"/>
<path d="M96.2578 33.3839L86.7685 20.7929H84.1347V39.3813H87.3102V26.796L96.7994 39.3813H99.4333V20.7929H96.2578V33.3839Z" fill="black"/>
<path d="M107.473 31.3657H115.783V28.5218H107.473V23.6883H116.84V20.7929H104.276V39.3813H117.185V36.4858H107.473V31.3657Z" fill="black"/>
<path d="M135.378 27.4095C135.378 23.2927 132.574 20.7986 128.05 20.7986H120.966V39.3871H124.163V33.9688H128.05C128.273 33.9688 128.491 33.9688 128.714 33.9401L132.229 39.3813H135.67L131.708 33.275C134.045 32.2946 135.372 30.219 135.372 27.4095H135.378ZM127.906 31.1249H124.168V23.717H127.906C130.71 23.717 132.16 25.0702 132.16 27.4095C132.16 29.7488 130.71 31.1249 127.906 31.1249Z" fill="black"/>
<path d="M144.474 20.7929L136.727 39.3813H140.024L141.723 35.0811H150.331L152.052 39.3813H155.397L147.628 20.7929H144.474ZM142.807 32.3748L146.03 24.2502L149.274 32.3748H142.807Z" fill="black"/>
<path d="M160.999 36.4629V20.7929H157.803V39.3813H170V36.4629H160.999Z" fill="black"/>
</svg>
