<svg width="255" height="106" viewBox="0 0 255 106" fill="none" xmlns="http://www.w3.org/2000/svg">
<path d="M29.7314 21.8025C30.934 21.8025 32.1358 21.8025 33.3385 21.8025C42.6804 21.8054 52.0231 21.8047 61.3651 21.8126C68.0631 21.8183 73.1496 25.6901 74.6954 31.9453C75.8973 36.8116 73.4577 42.3268 68.8748 45.1073C66.7217 46.4137 64.3761 47.0863 61.8276 47.0877C53.7017 47.0913 45.5758 47.092 37.4499 47.0927C31.3189 47.0927 25.188 47.087 19.057 47.1056C18.7317 47.1063 18.3147 47.2318 18.0961 47.4462C15.8318 49.6668 13.5989 51.9182 11.3593 54.1624C11.3138 54.2076 11.2914 54.2742 11.184 54.4592C11.5495 54.4592 11.8271 54.4592 12.1038 54.4592C24.8522 54.4592 37.6006 54.4521 50.3483 54.4628C54.2792 54.4664 57.2947 52.9514 59.303 49.6589C59.4119 49.4803 59.7036 49.3068 59.9163 49.3004C61.0301 49.2645 62.1454 49.2839 63.3787 49.2839C63.257 49.6409 63.1832 49.9722 63.0362 50.2705C60.5773 55.2752 56.4815 57.9582 50.7064 57.9754C35.355 58.022 20.0037 57.9883 4.65162 57.9869C4.4569 57.9869 4.26069 57.9969 4.06821 57.9747C3.3826 57.8951 3.17744 57.4219 3.5982 56.882C3.74294 56.6956 3.92199 56.5335 4.08985 56.3643C8.01105 52.4301 11.939 48.5023 15.8497 44.5595C16.5532 43.8504 17.3597 43.5564 18.3818 43.5579C32.8095 43.5751 47.2365 43.5701 61.6642 43.5694C66.2934 43.5694 70.058 40.692 71.1032 36.3599C72.0686 32.3568 69.8968 28.1036 65.8936 26.2042C64.4701 25.5288 62.9422 25.2986 61.3614 25.3008C54.306 25.3087 47.2507 25.3151 40.1954 25.2886C39.4613 25.2857 38.6936 25.1567 37.9998 24.9258C35.4035 24.0596 32.8304 23.1275 30.2499 22.2162C30.0604 22.1495 29.8828 22.052 29.7 21.9689C29.7105 21.9137 29.7209 21.8577 29.7314 21.8025Z" fill="#B69146"/>
<path d="M45.2834 36.2079C44.2277 36.2079 43.1728 36.2079 42.1172 36.2079C32.6275 36.205 23.1378 36.1871 13.6482 36.2043C9.07043 36.2122 5.30888 34.5566 2.63879 31.0003C-0.365525 26.9987 -0.836278 22.5876 1.38991 18.1307C3.61163 13.6824 7.45152 11.2095 12.5925 10.9757C16.6957 10.7893 20.8154 10.9177 24.9276 10.9162C35.2931 10.9134 45.6594 10.9191 56.0249 10.904C56.3315 10.904 56.7269 10.7979 56.9299 10.5993C59.1777 8.39453 61.3957 6.16177 63.6196 3.93476C63.6823 3.87238 63.7181 3.78562 63.8337 3.60493C63.4988 3.58701 63.2488 3.56191 62.9997 3.5612C50.1028 3.56048 37.2067 3.54972 24.3099 3.56908C20.6028 3.57482 17.7671 5.13717 15.8684 8.21025C15.6408 8.57808 15.4028 8.74729 14.9515 8.73582C13.8884 8.70929 12.8245 8.72722 11.5339 8.72722C12.0658 7.71696 12.4545 6.75904 13.0304 5.92086C15.7662 1.93718 19.6717 0.017758 24.6187 0.018475C39.8268 0.019909 55.0349 0.02206 70.2423 0.0328151C70.722 0.0328151 71.3337 -0.16938 71.5978 0.430036C71.8604 1.02658 71.2934 1.31123 70.9592 1.64823C67.1275 5.50356 63.2697 9.33595 59.4597 13.2106C58.5898 14.0954 57.6401 14.4647 56.3718 14.4625C42.0157 14.4339 27.6596 14.4403 13.3027 14.4468C8.34901 14.4489 4.30321 17.9536 3.80262 22.6428C3.25055 27.8089 7.27918 32.4414 12.6895 32.6508C16.5525 32.7999 20.426 32.6996 24.2949 32.7053C28.0423 32.7103 31.7897 32.6866 35.5363 32.7297C36.1436 32.7368 36.7621 32.9842 37.3507 33.1864C39.847 34.0461 42.335 34.9294 44.8246 35.8078C44.9932 35.8673 45.1498 35.9591 45.3117 36.0351C45.302 36.0924 45.2931 36.1512 45.2834 36.2079Z" fill="#B69146"/>
<path d="M63.4122 41.3997C62.041 41.3997 60.8816 41.4148 59.7238 41.3818C59.5671 41.3775 59.3702 41.1573 59.2717 40.9931C57.9639 38.8056 56.0361 37.4282 53.5659 36.5642C42.4812 32.6874 31.4308 28.7202 20.3499 24.8326C16.548 23.499 13.6817 21.2425 12.0374 17.6439C11.924 17.3951 11.8465 17.1312 11.6726 16.658C13.0036 16.658 14.1853 16.6386 15.3648 16.6795C15.5364 16.6853 15.7438 16.9505 15.8557 17.1384C17.1546 19.3145 19.1152 20.6302 21.5465 21.482C31.395 24.9344 41.2204 28.447 51.0548 31.9352C52.4006 32.4128 53.7435 32.9018 55.0998 33.3499C58.8375 34.5838 61.436 36.9894 63.0459 40.4246C63.1519 40.6504 63.2227 40.8913 63.4122 41.3997Z" fill="#B69146"/>
<path d="M7.01869 94.2334C5.44964 93.6996 4.17774 92.9392 3.20372 91.9515C2.2297 90.9638 1.74306 89.7398 1.74306 88.2795C1.74306 86.8192 2.24813 85.6162 3.25976 84.5866C4.27064 83.557 5.49609 83.0419 6.93611 83.0419C8.37612 83.0419 9.57577 83.5518 10.5918 84.5724C11.164 85.1339 11.644 86.0282 12.0318 87.2544L9.42831 88.2937C9.1142 87.4324 8.82811 86.8708 8.57005 86.6084C8.11732 86.159 7.57317 85.9347 6.93611 85.9347C6.29905 85.9347 5.74015 86.162 5.28817 86.6159C4.83618 87.0705 4.60982 87.6245 4.60982 88.2795C4.60982 88.9345 4.83618 89.4915 5.28817 89.9506C5.79619 90.4561 6.4974 90.9196 7.39326 91.3406C9.12821 91.9118 10.6007 92.8106 11.8106 94.0368C13.1673 95.3939 13.8464 97.0418 13.8464 98.9791C13.8464 100.916 13.1695 102.571 11.818 103.942C10.4657 105.314 8.83843 105.999 6.93685 105.999C5.03526 105.999 3.3969 105.311 2.04905 103.935C0.968852 102.839 0.286086 101.328 0 99.3993L2.78344 98.3742C2.95819 100.031 3.38805 101.206 4.07083 101.899C4.86493 102.704 5.81978 103.106 6.93758 103.106C8.05538 103.106 9.0095 102.704 9.80361 101.899C10.5977 101.094 10.9944 100.12 10.9944 98.9783C10.9944 97.8366 10.5977 96.8773 9.80361 96.0713C9.04636 95.3041 8.1188 94.691 7.02017 94.2319L7.01869 94.2334Z" fill="#B69146"/>
<path d="M28.5636 83.2946V86.2017H19.4944V93.0678H28.5636V95.9741H19.4944V102.84H28.5636V105.761H16.6276V83.2946H28.5636Z" fill="#B69146"/>
<path d="M51.1615 102.686C48.8816 104.896 46.2737 106 43.3384 106C40.2091 106 37.5407 104.881 35.3346 102.644C33.1285 100.407 32.0254 97.702 32.0254 94.5288C32.0254 91.3555 33.1285 88.6593 35.3346 86.4132C37.5407 84.1664 40.2091 83.0434 43.3384 83.0434C46.2641 83.0434 49.0387 84.2554 51.6607 86.6802L49.5143 88.6601C47.5389 86.8813 45.4803 85.9923 43.3391 85.9923C41.0216 85.9923 39.0397 86.8252 37.3917 88.4911C35.7445 90.1577 34.9202 92.1698 34.9202 94.5288C34.9202 96.8878 35.7445 98.9148 37.3917 100.581C39.0397 102.247 41.0216 103.08 43.3391 103.08C45.3328 103.08 46.9852 102.547 48.2962 101.479V94.697H51.163V102.686H51.1615Z" fill="#B69146"/>
<path d="M70.5327 83.2946V99.1189C70.2835 100.926 69.5499 102.451 68.3311 103.696C66.8542 105.194 65.0772 105.943 63.0001 105.943C60.9231 105.943 59.1483 105.197 57.6758 103.704C56.2034 102.211 55.4675 100.411 55.4675 98.3047V83.2946H58.3476V98.3047C58.3476 99.5967 58.8018 100.704 59.7109 101.625C60.62 102.547 61.7164 103.008 62.9994 103.008C64.2824 103.008 65.3898 102.55 66.2945 101.633C67.1992 100.715 67.6512 99.6064 67.6512 98.3047V83.2946H70.5327Z" fill="#B69146"/>
<path d="M80.1705 98.5723H77.5529V105.761H74.6862V83.2946H80.9727C82.7541 83.5383 84.259 84.2823 85.4866 85.5272C86.9547 87.0249 87.6883 88.8223 87.6883 90.9189C87.6883 93.0154 86.9547 94.8413 85.4866 96.339C84.4706 97.3685 83.6956 97.9488 83.1603 98.0804L88.0762 105.761H84.6004L80.1697 98.5716L80.1705 98.5723ZM77.5537 86.2159V95.6518H80.1712C81.4453 95.6518 82.5366 95.1905 83.4457 94.2686C84.3548 93.3467 84.8098 92.2304 84.8098 90.9196C84.8098 89.6089 84.3548 88.5091 83.4457 87.5916C82.5366 86.6742 81.4453 86.2159 80.1712 86.2159H77.5537Z" fill="#B69146"/>
<path d="M109.913 86.3699C112.129 88.6167 113.236 91.3264 113.236 94.4996C113.236 97.6729 112.129 100.383 109.913 102.629C107.697 104.876 105.025 105.999 101.896 105.999C98.7668 105.999 96.0939 104.876 93.8783 102.629C91.6626 100.383 90.5551 97.6729 90.5551 94.4996C90.5551 91.3264 91.6626 88.6167 93.8783 86.3699C96.0939 84.123 98.7661 83 101.896 83C105.026 83 107.697 84.123 109.913 86.3699ZM101.896 85.9347C99.5602 85.9347 97.5686 86.7699 95.9207 88.441C94.2727 90.1121 93.4491 92.1317 93.4491 94.4996C93.4491 96.8676 94.2757 98.8901 95.9281 100.566C97.5804 102.241 99.5697 103.079 101.896 103.079C104.222 103.079 106.223 102.241 107.871 100.566C109.518 98.8901 110.342 96.8683 110.342 94.4996C110.342 92.1309 109.518 90.1114 107.871 88.441C106.223 86.7699 104.231 85.9347 101.896 85.9347Z" fill="#B69146"/>
<path d="M132.498 94.2334C130.929 93.6996 129.657 92.9392 128.683 91.9515C127.709 90.9638 127.222 89.7398 127.222 88.2795C127.222 86.8192 127.728 85.6162 128.739 84.5866C129.75 83.557 130.975 83.0419 132.415 83.0419C133.855 83.0419 135.055 83.5518 136.071 84.5724C136.644 85.1339 137.124 86.0282 137.511 87.2544L134.908 88.2937C134.594 87.4324 134.308 86.8708 134.05 86.6084C133.598 86.159 133.053 85.9347 132.416 85.9347C131.779 85.9347 131.221 86.162 130.769 86.6159C130.316 87.0705 130.09 87.6245 130.09 88.2795C130.09 88.9345 130.316 89.4915 130.769 89.9506C131.276 90.4561 131.978 90.9196 132.873 91.3406C134.609 91.9118 136.081 92.8106 137.29 94.0368C138.647 95.3939 139.326 97.0418 139.326 98.9791C139.326 100.916 138.65 102.571 137.298 103.942C135.945 105.314 134.318 105.999 132.417 105.999C130.515 105.999 128.877 105.311 127.529 103.935C126.449 102.839 125.765 101.328 125.48 99.3993L128.263 98.3742C128.439 100.031 128.868 101.206 129.551 101.899C130.345 102.704 131.301 103.106 132.417 103.106C133.534 103.106 134.489 102.704 135.284 101.899C136.077 101.094 136.475 100.12 136.475 98.9783C136.475 97.8366 136.077 96.8773 135.284 96.0713C134.527 95.3041 133.599 94.691 132.501 94.2319L132.498 94.2334Z" fill="#B69146"/>
<path d="M154.043 83.2946V86.2017H144.973V93.0678H154.043V95.9741H144.973V102.84H154.043V105.761H142.107V83.2946H154.043Z" fill="#B69146"/>
<path d="M176.641 102.686C174.361 104.896 171.753 106 168.817 106C165.688 106 163.02 104.881 160.814 102.644C158.607 100.407 157.504 97.702 157.504 94.5288C157.504 91.3555 158.607 88.6593 160.814 86.4132C163.02 84.1664 165.688 83.0434 168.817 83.0434C171.744 83.0434 174.518 84.2554 177.14 86.6802L174.993 88.6601C173.018 86.8813 170.959 85.9923 168.818 85.9923C166.501 85.9923 164.519 86.8252 162.871 88.4911C161.224 90.1577 160.399 92.1698 160.399 94.5288C160.399 96.8878 161.224 98.9148 162.871 100.581C164.519 102.247 166.501 103.08 168.818 103.08C170.813 103.08 172.464 102.547 173.775 101.479V94.697H176.641V102.686Z" fill="#B69146"/>
<path d="M196.012 83.2946V99.1189C195.763 100.926 195.029 102.451 193.811 103.696C192.333 105.194 190.557 105.943 188.479 105.943C186.401 105.943 184.628 105.197 183.156 103.704C181.683 102.211 180.946 100.411 180.946 98.3047V83.2946H183.827V98.3047C183.827 99.5967 184.281 100.704 185.191 101.625C186.099 102.547 187.196 103.008 188.479 103.008C189.762 103.008 190.87 102.55 191.775 101.633C192.679 100.715 193.132 99.6064 193.132 98.3047V83.2946H196.012Z" fill="#B69146"/>
<path d="M205.65 98.5723H203.033V105.761H200.167V83.2946H206.454C208.235 83.5383 209.74 84.2823 210.967 85.5272C212.435 87.0249 213.17 88.8223 213.17 90.9189C213.17 93.0154 212.435 94.8413 210.967 96.339C209.952 97.3685 209.176 97.9488 208.641 98.0804L213.557 105.761H210.081L205.649 98.5716L205.65 98.5723ZM203.033 86.2159V95.6518H205.649C206.924 95.6518 208.015 95.1905 208.924 94.2686C209.833 93.3467 210.287 92.2304 210.287 90.9196C210.287 89.6089 209.833 88.5091 208.924 87.5916C208.015 86.6742 206.923 86.2159 205.649 86.2159H203.033Z" fill="#B69146"/>
<path d="M235.393 86.3699C237.608 88.6167 238.716 91.3264 238.716 94.4996C238.716 97.6729 237.608 100.383 235.393 102.629C233.177 104.876 230.504 105.999 227.375 105.999C224.246 105.999 221.574 104.876 219.358 102.629C217.142 100.383 216.035 97.6729 216.035 94.4996C216.035 91.3264 217.142 88.6167 219.358 86.3699C221.574 84.123 224.246 83 227.375 83C230.504 83 233.177 84.123 235.393 86.3699ZM227.376 85.9347C225.041 85.9347 223.049 86.7699 221.401 88.441C219.754 90.1121 218.93 92.1317 218.93 94.4996C218.93 96.8676 219.755 98.8901 221.408 100.566C223.06 102.241 225.05 103.079 227.376 103.079C229.701 103.079 231.703 102.241 233.35 100.566C234.998 98.8901 235.823 96.8683 235.823 94.4996C235.823 92.1309 234.998 90.1114 233.35 88.441C231.703 86.7699 229.711 85.9347 227.376 85.9347Z" fill="#B69146"/>
<path d="M248.173 94.2334C246.604 93.6996 245.332 92.9392 244.358 91.9515C243.384 90.9638 242.897 89.7398 242.897 88.2795C242.897 86.8192 243.403 85.6162 244.414 84.5866C245.425 83.557 246.65 83.0419 248.09 83.0419C249.53 83.0419 250.73 83.5518 251.746 84.5724C252.318 85.1339 252.798 86.0282 253.186 87.2544L250.583 88.2937C250.269 87.4324 249.982 86.8708 249.724 86.6084C249.272 86.159 248.727 85.9347 248.09 85.9347C247.454 85.9347 246.894 86.162 246.442 86.6159C245.991 87.0705 245.764 87.6245 245.764 88.2795C245.764 88.9345 245.991 89.4915 246.442 89.9506C246.951 90.4561 247.652 90.9196 248.547 91.3406C250.283 91.9118 251.755 92.8106 252.964 94.0368C254.321 95.3939 255 97.0418 255 98.9791C255 100.916 254.324 102.571 252.972 103.942C251.619 105.314 249.992 105.999 248.09 105.999C246.189 105.999 244.551 105.311 243.202 103.935C242.122 102.839 241.439 101.328 241.153 99.3993L243.936 98.3742C244.111 100.031 244.541 101.206 245.224 101.899C246.018 102.704 246.973 103.106 248.09 103.106C249.208 103.106 250.162 102.704 250.956 101.899C251.751 101.094 252.147 100.12 252.147 98.9783C252.147 97.8366 251.751 96.8773 250.956 96.0713C250.199 95.3041 249.272 94.691 248.173 94.2319V94.2334Z" fill="#B69146"/>
</svg>
