<svg width="81" height="66" viewBox="0 0 81 66" fill="none" xmlns="http://www.w3.org/2000/svg">
<path d="M32.1099 24.8098C33.4087 24.8098 34.7067 24.8098 36.0056 24.8098C46.0949 24.813 56.185 24.8122 66.2743 24.8212C73.5081 24.8277 79.0015 29.2336 80.671 36.3515C81.969 41.889 79.3343 48.165 74.3847 51.329C72.0594 52.8156 69.5262 53.5809 66.7738 53.5826C57.9979 53.5866 49.2219 53.5874 40.4459 53.5883C33.8245 53.5883 27.203 53.5817 20.5815 53.6029C20.2302 53.6038 19.7798 53.7465 19.5438 53.9905C17.0984 56.5173 14.6868 59.0793 12.268 61.6331C12.2189 61.6845 12.1947 61.7603 12.0787 61.9708C12.4735 61.9708 12.7732 61.9708 13.0722 61.9708C26.8404 61.9708 40.6087 61.9627 54.3761 61.9749C58.6215 61.979 61.8783 60.255 64.0473 56.5084C64.1649 56.3052 64.4799 56.1078 64.7096 56.1004C65.9125 56.0596 67.1171 56.0817 68.449 56.0817C68.3176 56.488 68.2379 56.8649 68.0791 57.2043C65.4234 62.8993 61 65.9524 54.7629 65.972C38.1834 66.0251 21.604 65.9867 5.02375 65.9851C4.81345 65.9851 4.60155 65.9965 4.39367 65.9712C3.65321 65.8806 3.43163 65.3421 3.88606 64.7278C4.04237 64.5156 4.23575 64.3312 4.41703 64.1387C8.65193 59.6618 12.8941 55.1923 17.1177 50.7057C17.8775 49.8988 18.7485 49.5642 19.8523 49.5659C35.4343 49.5854 51.0154 49.5797 66.5974 49.5789C71.5969 49.5789 75.6626 46.3047 76.7915 41.375C77.8341 36.8198 75.4886 31.9799 71.1651 29.8186C69.6277 29.05 67.9776 28.7881 66.2703 28.7905C58.6505 28.7995 51.0308 28.8069 43.411 28.7767C42.6182 28.7734 41.7891 28.6265 41.0397 28.3638C38.2358 27.3782 35.4569 26.3175 32.6698 25.2805C32.4652 25.2047 32.2734 25.0937 32.076 24.9991C32.0873 24.9362 32.0986 24.8726 32.1099 24.8098Z" fill="#F5EDB3"/>
<path d="M48.906 41.202C47.7659 41.202 46.6266 41.202 45.4865 41.202C35.2377 41.1988 24.9889 41.1784 14.74 41.198C9.79607 41.2069 5.73359 39.323 2.8499 35.2762C-0.394767 30.7226 -0.90318 25.7032 1.50111 20.6315C3.90056 15.5697 8.04764 12.7556 13.5999 12.4896C18.0314 12.2775 22.4806 12.4236 26.9218 12.4219C38.1166 12.4187 49.3121 12.4252 60.5069 12.4081C60.8381 12.4081 61.2651 12.2873 61.4843 12.0613C63.9119 9.55239 66.3073 7.01167 68.7092 4.47748C68.7769 4.4065 68.8156 4.30777 68.9405 4.10217C68.5787 4.08177 68.3088 4.05321 68.0396 4.0524C54.111 4.05158 40.1833 4.03934 26.2546 4.06137C22.251 4.0679 19.1884 5.84575 17.1378 9.3427C16.8921 9.76126 16.6351 9.95382 16.1476 9.94076C14.9995 9.91057 13.8505 9.93097 12.4566 9.93097C13.0311 8.78136 13.4508 7.69132 14.0729 6.73753C17.0275 2.20438 21.2454 0.0202074 26.5882 0.0210233C43.013 0.0226551 59.4377 0.0251028 75.8616 0.0373413C76.3797 0.0373413 77.0404 -0.192743 77.3256 0.489351C77.6093 1.16818 76.9969 1.49209 76.6359 1.87557C72.4977 6.26267 68.3313 10.6237 64.2165 15.0328C63.277 16.0396 62.2513 16.4598 60.8816 16.4574C45.377 16.4247 29.8724 16.4321 14.367 16.4394C9.01693 16.4419 4.64747 20.43 4.10683 25.766C3.51059 31.6446 7.86152 36.9161 13.7046 37.1544C17.8767 37.3241 22.06 37.2098 26.2385 37.2164C30.2857 37.2221 34.3329 37.1952 38.3792 37.2441C39.0351 37.2523 39.703 37.5338 40.3388 37.7638C43.0347 38.7421 45.7218 39.7473 48.4105 40.7468C48.5926 40.8145 48.7618 40.9189 48.9367 41.0054C48.9262 41.0707 48.9165 41.1376 48.906 41.202Z" fill="#F5EDB3"/>
<path d="M68.4852 47.11C67.0043 47.11 65.7522 47.1271 64.5017 47.0896C64.3325 47.0847 64.1198 46.8342 64.0134 46.6474C62.601 44.1581 60.519 42.5907 57.8512 41.6076C45.8797 37.196 33.9453 32.6816 21.9778 28.2578C17.8719 26.7402 14.7763 24.1725 13.0004 20.0775C12.878 19.7944 12.7942 19.4942 12.6064 18.9557C14.0439 18.9557 15.3201 18.9336 16.594 18.9801C16.7793 18.9867 17.0033 19.2886 17.1242 19.5023C18.5269 21.9786 20.6444 23.4758 23.2702 24.4451C33.9066 28.3736 44.5181 32.3707 55.1392 36.3401C56.5927 36.8835 58.043 37.4399 59.5078 37.9499C63.5445 39.354 66.3508 42.0914 68.0896 46.0004C68.204 46.2574 68.2806 46.5315 68.4852 47.11Z" fill="#F5EDB3"/>
</svg>
