<svg width="247" height="30" viewBox="0 0 247 30" fill="none" xmlns="http://www.w3.org/2000/svg">
<path d="M55.2988 15L47.9857 0.00646719H36.9261V29.9935H47.9857V15L55.2988 29.9935L62.6116 15V29.9935H73.6714V0.0062085H62.6116L55.2988 15ZM85.8225 0.00646719L77.22 29.9935H88.2798L89.6912 25.0725H101.494L102.905 29.9933H113.965L105.363 0.00646719H85.8225ZM91.1029 20.1518L95.5926 4.49754L100.082 20.1518H91.1029ZM138.187 0.0196603H117.49V29.9933H128.545V17.5038H138.187C143.008 17.5038 146.916 13.5886 146.916 8.76175C146.916 3.9349 143.008 0.0196603 138.187 0.0196603ZM131.133 12.4263H128.735V3.45244H131.133C133.625 3.45244 136.048 4.7896 136.048 7.50737C136.048 10.2251 133.911 12.4258 131.133 12.4258M150.752 29.9933H161.81V17.4754H180.152V12.5526H161.809V4.92696H180.152V0.00646719H150.752V29.9933ZM247 4.92696V0.00646719H217.596V29.9935H247V25.0723H228.656V17.4756H247V12.5528H228.656V4.92696H247ZM213.446 7.5097C213.446 3.37199 210.094 0.0152626 205.961 0.0152626H184.023V29.9933H195.265V17.5804H197.662C200.374 17.5804 202.576 19.7834 202.576 22.4991C202.576 22.5798 202.574 22.6605 202.57 22.7412V29.9935H213.446V22.4988C213.446 22.4161 213.448 22.3353 213.446 22.2523C213.315 18.2282 210.011 15.0044 205.961 15.0044C210.094 15.0044 213.446 11.6497 213.446 7.5097ZM197.662 12.4305H195.265V3.45917H197.662C200.093 3.45917 202.576 4.79193 202.576 7.5097C202.576 10.2275 200.376 12.4305 197.662 12.4305ZM14.9809 0C6.70699 0 0 6.71579 0 15C0 15.6369 0.0413374 16.2629 0.117553 16.8781C1.04118 24.2765 7.34332 30 14.9809 30C22.6182 30 28.9227 24.2742 29.8443 16.8778L28.4042 16.8822C27.4893 23.487 21.8277 28.5713 14.9809 28.5713C8.13416 28.5713 2.47249 23.487 1.55764 16.8778H1.55532C1.46946 16.2555 1.42656 15.628 1.42691 14.9997C1.42691 7.50556 7.49575 1.42873 14.9809 1.42873C22.4658 1.42873 28.5349 7.5053 28.5349 15C28.5349 15.639 28.4892 16.2673 28.4042 16.8781H29.844C29.9226 16.2629 29.9618 15.6369 29.9618 15C29.9618 6.71553 23.2543 0 14.9809 0ZM24.8794 15.5976C24.8794 15.4799 24.8665 15.3772 24.851 15.2944C24.6721 14.2979 24.3221 13.3401 23.8165 12.4633C23.2936 11.5579 22.5224 10.6944 21.7644 10.0575C21.5132 9.86573 21.223 9.7317 20.9142 9.66495C20.6055 9.5982 20.2859 9.60036 19.9781 9.67129C19.7386 8.97775 19.1699 8.39752 18.5315 8.11839C17.3933 7.70492 16.1917 7.49376 14.9809 7.49444C13.7434 7.49444 12.5518 7.71251 11.4476 8.11399C11.3649 8.14452 11.2624 8.18591 11.1557 8.24696C10.8713 8.3959 10.6198 8.60044 10.4158 8.84847C10.2118 9.0965 10.0597 9.38298 9.96824 9.69095C9.31046 9.57325 8.59817 9.76287 8.08843 10.1403C7.31046 10.7953 6.65286 11.5815 6.14531 12.4633C5.63868 13.3396 5.28853 14.2976 5.11059 15.2944C5.09509 15.3772 5.08217 15.4799 5.08217 15.5976C5.06548 16.0491 5.18465 16.4952 5.42424 16.8781H5.4263C5.61766 17.1804 5.87924 17.4318 6.18872 17.6109C6.55877 17.8242 6.98225 17.9264 7.40869 17.9053L12.2818 17.8924C12.628 17.9053 13.5452 17.9074 14.2467 17.9074V22.5032H15.7149V17.9074C16.4187 17.9074 17.3335 17.9053 17.68 17.8921L22.5529 17.9051C22.9793 17.9262 23.4028 17.8241 23.7729 17.6109C24.0835 17.4324 24.346 17.1808 24.5376 16.8778C24.777 16.495 24.8961 16.049 24.8794 15.5976ZM12.672 16.2365C12.6363 16.2977 12.5839 16.3475 12.521 16.38C12.4581 16.4125 12.3872 16.4263 12.3167 16.4199L7.35882 16.4329C7.20688 16.4466 7.05445 16.4123 6.92297 16.3348C6.80045 16.264 6.70057 16.1598 6.63501 16.0343C6.56945 15.9088 6.54092 15.7672 6.55275 15.626C6.70079 14.747 6.98395 13.9508 7.41747 13.1982C7.83995 12.4655 8.38693 11.8123 9.03376 11.2679L9.05779 11.2483C9.17501 11.159 9.31605 11.1066 9.46304 11.0977C9.61003 11.0887 9.75636 11.1237 9.8835 11.1981C10.023 11.2788 10.1274 11.3988 10.1904 11.5362L12.6588 15.8441C12.735 15.9574 12.7435 16.1103 12.6717 16.2368M14.9809 16.4373C14.894 16.4371 14.809 16.4123 14.7357 16.3655C14.6624 16.3188 14.6039 16.2522 14.567 16.1734L11.5042 10.8949C11.3981 10.7402 11.3411 10.5569 11.3406 10.3692C11.3406 10.0006 11.5564 9.68449 11.8677 9.53626C12.8939 9.15444 13.9157 8.96689 14.9809 8.96689C16.0505 8.96689 17.0788 9.15651 18.0285 9.50108L18.0634 9.5166C18.2301 9.58688 18.3724 9.7049 18.4724 9.85585C18.5723 10.0068 18.6255 10.184 18.6253 10.3651C18.6261 10.5577 18.5658 10.7455 18.4533 10.9016L15.3904 16.1822C15.3523 16.2584 15.2939 16.3226 15.2216 16.3676C15.1494 16.4127 15.066 16.4368 14.9809 16.4373ZM23.0389 16.3348C22.9074 16.4124 22.755 16.4468 22.603 16.4331L17.6451 16.4199C17.5056 16.4329 17.364 16.3654 17.2899 16.2368C17.2554 16.1766 17.2384 16.1079 17.2408 16.0386C17.2431 15.9692 17.2647 15.9019 17.303 15.8441L19.7711 11.5362C19.8344 11.3988 19.9391 11.2788 20.0783 11.1981C20.2055 11.1236 20.3518 11.0886 20.4988 11.0976C20.6458 11.1065 20.7868 11.159 20.904 11.2483L20.9278 11.2679C21.5753 11.8117 22.1225 12.465 22.5444 13.1982C22.9758 13.951 23.261 14.747 23.4091 15.626C23.4209 15.7672 23.3924 15.9088 23.3268 16.0343C23.2613 16.1598 23.1614 16.264 23.0389 16.3348Z" fill="black"/>
</svg>
