<svg width="286" height="48" viewBox="0 0 286 48" fill="none" xmlns="http://www.w3.org/2000/svg">
<path d="M23.688 18.0435C24.6462 18.0435 25.6037 18.0435 26.5619 18.0435C34.005 18.0458 41.4486 18.0452 48.8917 18.0518C54.2282 18.0565 58.2808 21.2608 59.5124 26.4375C60.47 30.4648 58.5263 35.0291 54.8749 37.3302C53.1595 38.4113 51.2907 38.9679 49.2602 38.9691C42.786 38.9721 36.3118 38.9727 29.8377 38.9733C24.9529 38.9733 20.0681 38.9685 15.1833 38.984C14.9242 38.9846 14.5919 39.0884 14.4178 39.2658C12.6138 41.1035 10.8347 42.9668 9.05034 44.824C9.01408 44.8614 8.99625 44.9166 8.91066 45.0697C9.20191 45.0697 9.42303 45.0697 9.64355 45.0697C19.8006 45.0697 29.9577 45.0638 40.1142 45.0727C43.2461 45.0756 45.6487 43.8218 47.2488 41.097C47.3356 40.9492 47.568 40.8056 47.7374 40.8003C48.6248 40.7706 49.5134 40.7867 50.496 40.7867C50.3991 41.0822 50.3402 41.3563 50.2231 41.6032C48.264 45.745 45.0008 47.9654 40.3995 47.9797C28.1686 48.0182 15.9376 47.9903 3.7061 47.9891C3.55097 47.9891 3.39464 47.9975 3.24128 47.9791C2.69503 47.9132 2.53157 47.5216 2.86681 47.0747C2.98213 46.9205 3.12478 46.7864 3.25852 46.6463C6.38268 43.3904 9.51219 40.1399 12.628 36.8769C13.1885 36.29 13.8311 36.0467 14.6454 36.0479C26.1405 36.0621 37.635 36.058 49.13 36.0574C52.8183 36.0574 55.8176 33.6761 56.6504 30.0909C57.4195 26.7781 55.6892 23.2581 52.4997 21.6862C51.3656 21.1273 50.1483 20.9368 48.8887 20.9386C43.2675 20.9451 37.6463 20.9504 32.025 20.9285C31.4402 20.9261 30.8285 20.8193 30.2757 20.6282C28.2072 19.9114 26.1571 19.14 24.1011 18.3858C23.9501 18.3307 23.8087 18.25 23.663 18.1811C23.6714 18.1354 23.6797 18.0903 23.688 18.0446V18.0435Z" fill="url(#paint0_linear_12_44)"/>
<path d="M36.0788 29.9651C35.2378 29.9651 34.3973 29.9651 33.5562 29.9651C25.9955 29.9628 18.4347 29.9479 10.874 29.9622C7.22673 29.9687 4.22977 28.5986 2.10242 25.6554C-0.291226 22.3437 -0.666292 18.6932 1.10739 15.0047C2.87751 11.3234 5.93688 9.27682 10.0329 9.08337C13.3021 8.9291 16.5843 9.03531 19.8607 9.03412C28.1192 9.03175 36.3784 9.0365 44.637 9.02404C44.8813 9.02404 45.1963 8.93622 45.358 8.77185C47.1489 6.94719 48.9161 5.0994 50.688 3.25635C50.7379 3.20473 50.7664 3.13293 50.8586 2.98339C50.5917 2.96856 50.3925 2.94779 50.194 2.9472C39.9187 2.9466 29.6439 2.9377 19.3685 2.95372C16.4149 2.95847 14.1556 4.25145 12.6429 6.79469C12.4616 7.0991 12.272 7.23914 11.9124 7.22964C11.0654 7.20769 10.2177 7.22252 9.18943 7.22252C9.61324 6.38645 9.92292 5.59369 10.3818 4.90002C12.5615 1.60318 15.6731 0.0146963 19.6146 0.0152896C31.7314 0.0164764 43.8482 0.0182566 55.9644 0.0271573C56.3466 0.0271573 56.834 -0.140177 57.0445 0.355892C57.2537 0.849587 56.8019 1.08516 56.5357 1.36405C53.4828 4.55467 50.4092 7.72631 47.3736 10.933C46.6805 11.6652 45.9239 11.9708 44.9134 11.969C33.4754 11.9453 22.0374 11.9506 10.5988 11.9559C6.65194 11.9577 3.42852 14.8582 3.02968 18.7389C2.58982 23.0142 5.79958 26.8481 10.1102 27.0214C13.188 27.1448 16.2741 27.0617 19.3566 27.0665C22.3423 27.0706 25.3279 27.051 28.313 27.0866C28.7969 27.0926 29.2896 27.2973 29.7586 27.4646C31.7475 28.1761 33.7298 28.9071 35.7133 29.634C35.8476 29.6833 35.9724 29.7592 36.1014 29.8221C36.0937 29.8696 36.086 29.9171 36.0782 29.9639L36.0788 29.9651Z" fill="url(#paint1_linear_12_44)"/>
<path d="M50.5227 34.2618C49.4302 34.2618 48.5065 34.2743 47.584 34.247C47.4592 34.2434 47.3023 34.0613 47.2238 33.9254C46.1818 32.115 44.6459 30.9751 42.6778 30.26C33.8463 27.0516 25.042 23.7684 16.2134 20.5511C13.1844 19.4474 10.9007 17.58 9.59065 14.6018C9.5003 14.3959 9.43849 14.1776 9.29999 13.7859C10.3604 13.7859 11.3019 13.7699 12.2417 13.8037C12.3784 13.8085 12.5436 14.028 12.6328 14.1835C13.6676 15.9844 15.2297 17.0733 17.1669 17.7782C25.0135 20.6354 32.8417 23.5423 40.6771 26.4292C41.7494 26.8244 42.8193 27.229 43.8999 27.5999C46.8779 28.6211 48.9482 30.6119 50.2309 33.4548C50.3153 33.6417 50.3717 33.8411 50.5227 34.2618Z" fill="url(#paint2_linear_12_44)"/>
<path d="M85.0091 23.7843C83.7433 23.3523 82.7172 22.7369 81.9315 21.9377C81.1457 21.1384 80.7531 20.1479 80.7531 18.9662C80.7531 17.7845 81.1606 16.811 81.9767 15.9778C82.7922 15.1446 83.7808 14.7278 84.9425 14.7278C86.1042 14.7278 87.0719 15.1404 87.8916 15.9663C88.3532 16.4207 88.7404 17.1444 89.0533 18.1367L86.953 18.9777C86.6996 18.2807 86.4688 17.8263 86.2606 17.6139C85.8954 17.2503 85.4564 17.0687 84.9425 17.0687C84.4285 17.0687 83.9777 17.2527 83.613 17.6199C83.2484 17.9878 83.0658 18.4362 83.0658 18.9662C83.0658 19.4962 83.2484 19.947 83.613 20.3185C84.0229 20.7275 84.5886 21.1027 85.3113 21.4433C86.7109 21.9056 87.8988 22.6329 88.8749 23.6252C89.9693 24.7233 90.5172 26.0569 90.5172 27.6246C90.5172 29.1923 89.9711 30.5313 88.8808 31.641C87.7899 32.7507 86.4771 33.3055 84.9431 33.3055C83.409 33.3055 82.0873 32.7489 81 31.6349C80.1285 30.7485 79.5777 29.5257 79.347 27.9647L81.5924 27.1351C81.7334 28.4759 82.0802 29.4265 82.631 29.9874C83.2716 30.639 84.0419 30.9645 84.9437 30.9645C85.8454 30.9645 86.6151 30.639 87.2557 29.9874C87.8964 29.3357 88.2164 28.5479 88.2164 27.624C88.2164 26.7001 87.8964 25.9238 87.2557 25.2715C86.6449 24.6507 85.8966 24.1546 85.0103 23.7831L85.0091 23.7843Z" fill="url(#paint3_linear_12_44)"/>
<path d="M102.39 14.9323V17.2847H95.0735V22.841H102.39V25.1929H95.0735V30.7491H102.39V33.1125H92.7609V14.9323H102.39Z" fill="url(#paint4_linear_12_44)"/>
<path d="M120.62 30.6245C118.781 32.4125 116.677 33.3061 114.309 33.3061C111.785 33.3061 109.632 32.401 107.852 30.5906C106.072 28.7803 105.183 26.5912 105.183 24.0233C105.183 21.4554 106.072 19.2736 107.852 17.456C109.632 15.6378 111.785 14.729 114.309 14.729C116.669 14.729 118.908 15.7098 121.023 17.672L119.291 19.2742C117.698 17.8347 116.037 17.1153 114.31 17.1153C112.44 17.1153 110.841 17.7894 109.512 19.1374C108.183 20.4861 107.518 22.1143 107.518 24.0233C107.518 25.9323 108.183 27.5726 109.512 28.9206C110.841 30.2693 112.44 30.9434 114.31 30.9434C115.918 30.9434 117.251 30.512 118.309 29.6479V24.1594H120.621V30.6245H120.62Z" fill="url(#paint5_linear_12_44)"/>
<path d="M136.247 14.9323V27.7378C136.046 29.2002 135.454 30.4345 134.471 31.4419C133.28 32.6539 131.846 33.2601 130.171 33.2601C128.495 33.2601 127.063 32.6563 125.875 31.448C124.687 30.2397 124.094 28.7833 124.094 27.0788V14.9323H126.417V27.0788C126.417 28.1244 126.784 29.0205 127.517 29.7659C128.25 30.512 129.135 30.8853 130.17 30.8853C131.205 30.8853 132.098 30.5144 132.828 29.772C133.558 29.0296 133.923 28.1323 133.923 27.0788V14.9323H136.247Z" fill="url(#paint6_linear_12_44)"/>
<path d="M144.022 27.2955H141.911V33.1131H139.598V14.9323H144.669C146.107 15.1295 147.321 15.7316 148.311 16.739C149.495 17.9509 150.087 19.4055 150.087 21.1021C150.087 22.7987 149.495 24.2762 148.311 25.4881C147.491 26.3213 146.866 26.7908 146.434 26.8973L150.4 33.1125H147.596L144.022 27.2949L144.022 27.2955ZM141.911 17.2962V24.9321H144.023C145.051 24.9321 145.931 24.5588 146.664 23.8127C147.398 23.0667 147.765 22.1633 147.765 21.1027C147.765 20.042 147.398 19.152 146.664 18.4096C145.931 17.6671 145.051 17.2962 144.023 17.2962H141.911Z" fill="url(#paint7_linear_12_44)"/>
<path d="M168.016 17.4209C169.804 19.2391 170.697 21.4318 170.697 23.9997C170.697 26.5676 169.804 28.7603 168.016 30.5785C166.229 32.3967 164.073 33.3055 161.549 33.3055C159.024 33.3055 156.868 32.3967 155.081 30.5785C153.293 28.7603 152.4 26.5676 152.4 23.9997C152.4 21.4318 153.293 19.2391 155.081 17.4209C156.868 15.6027 159.024 14.6939 161.549 14.6939C164.074 14.6939 166.229 15.6027 168.016 17.4209ZM161.549 17.0687C159.664 17.0687 158.058 17.7446 156.728 19.0969C155.399 20.4492 154.734 22.0835 154.734 23.9997C154.734 25.9159 155.401 27.5526 156.734 28.9085C158.067 30.2645 159.672 30.9422 161.549 30.9422C163.425 30.9422 165.039 30.2645 166.369 28.9085C167.698 27.5526 168.363 25.9165 168.363 23.9997C168.363 22.0829 167.698 20.4486 166.369 19.0969C165.039 17.7446 163.433 17.0687 161.549 17.0687Z" fill="url(#paint8_linear_12_44)"/>
<path d="M186.236 23.7843C184.97 23.3523 183.945 22.7369 183.159 21.9377C182.373 21.1384 181.98 20.1479 181.98 18.9662C181.98 17.7845 182.388 16.811 183.203 15.9778C184.019 15.1446 185.007 14.7278 186.169 14.7278C187.331 14.7278 188.299 15.1404 189.118 15.9663C189.581 16.4207 189.968 17.1444 190.28 18.1367L188.18 18.9777C187.927 18.2807 187.696 17.8263 187.488 17.6139C187.123 17.2503 186.684 17.0687 186.17 17.0687C185.656 17.0687 185.206 17.2527 184.841 17.6199C184.476 17.9878 184.294 18.4362 184.294 18.9662C184.294 19.4962 184.476 19.947 184.841 20.3185C185.25 20.7275 185.816 21.1027 186.539 21.4433C187.939 21.9056 189.127 22.6329 190.102 23.6252C191.197 24.7233 191.744 26.0569 191.744 27.6246C191.744 29.1923 191.199 30.5313 190.108 31.641C189.017 32.7507 187.704 33.3055 186.17 33.3055C184.636 33.3055 183.315 32.7489 182.227 31.6349C181.356 30.7485 180.804 29.5257 180.574 27.9647L182.82 27.1351C182.961 28.4759 183.308 29.4265 183.859 29.9874C184.5 30.639 185.27 30.9645 186.171 30.9645C187.072 30.9645 187.842 30.639 188.484 29.9874C189.124 29.3357 189.444 28.5479 189.444 27.624C189.444 26.7001 189.124 25.9238 188.484 25.2715C187.873 24.6507 187.124 24.1546 186.238 23.7831L186.236 23.7843Z" fill="url(#paint9_linear_12_44)"/>
<path d="M203.617 14.9323V17.2847H196.3V22.841H203.617V25.1929H196.3V30.7491H203.617V33.1125H193.988V14.9323H203.617Z" fill="url(#paint10_linear_12_44)"/>
<path d="M221.847 30.6245C220.008 32.4125 217.904 33.3061 215.536 33.3061C213.011 33.3061 210.859 32.401 209.079 30.5906C207.299 28.7803 206.409 26.5912 206.409 24.0233C206.409 21.4554 207.299 19.2736 209.079 17.456C210.859 15.6378 213.011 14.729 215.536 14.729C217.897 14.729 220.134 15.7098 222.249 17.672L220.518 19.2742C218.924 17.8347 217.264 17.1153 215.536 17.1153C213.667 17.1153 212.068 17.7894 210.739 19.1374C209.41 20.4861 208.745 22.1143 208.745 24.0233C208.745 25.9323 209.41 27.5726 210.739 28.9206C212.068 30.2693 213.667 30.9434 215.536 30.9434C217.145 30.9434 218.478 30.512 219.535 29.6479V24.1594H221.847V30.6245Z" fill="url(#paint11_linear_12_44)"/>
<path d="M237.475 14.9323V27.7378C237.274 29.2002 236.681 30.4345 235.699 31.4419C234.506 32.6539 233.074 33.2601 231.397 33.2601C229.721 33.2601 228.291 32.6563 227.103 31.448C225.915 30.2397 225.321 28.7833 225.321 27.0788V14.9323H227.644V27.0788C227.644 28.1244 228.011 29.0205 228.744 29.7659C229.477 30.512 230.362 30.8853 231.397 30.8853C232.432 30.8853 233.326 30.5144 234.056 29.772C234.785 29.0296 235.151 28.1323 235.151 27.0788V14.9323H237.475Z" fill="url(#paint12_linear_12_44)"/>
<path d="M245.25 27.2955H243.139V33.1131H240.826V14.9323H245.898C247.335 15.1295 248.549 15.7316 249.539 16.739C250.723 17.9509 251.316 19.4055 251.316 21.1021C251.316 22.7987 250.723 24.2762 249.539 25.4881C248.72 26.3213 248.094 26.7908 247.662 26.8973L251.628 33.1125H248.824L245.249 27.2949L245.25 27.2955ZM243.138 17.2962V24.9321H245.249C246.277 24.9321 247.157 24.5588 247.891 23.8127C248.624 23.0667 248.99 22.1633 248.99 21.1027C248.99 20.042 248.624 19.152 247.891 18.4096C247.157 17.6671 246.276 17.2962 245.249 17.2962H243.138Z" fill="url(#paint13_linear_12_44)"/>
<path d="M269.244 17.4209C271.031 19.2391 271.925 21.4318 271.925 23.9997C271.925 26.5676 271.031 28.7603 269.244 30.5785C267.456 32.3967 265.3 33.3055 262.776 33.3055C260.251 33.3055 258.095 32.3967 256.308 30.5785C254.521 28.7603 253.627 26.5676 253.627 23.9997C253.627 21.4318 254.521 19.2391 256.308 17.4209C258.095 15.6027 260.251 14.6939 262.776 14.6939C265.3 14.6939 267.456 15.6027 269.244 17.4209ZM262.776 17.0687C260.892 17.0687 259.286 17.7446 257.956 19.0969C256.627 20.4492 255.962 22.0835 255.962 23.9997C255.962 25.9159 256.629 27.5526 257.962 28.9085C259.295 30.2645 260.9 30.9422 262.776 30.9422C264.652 30.9422 266.267 30.2645 267.596 28.9085C268.925 27.5526 269.59 25.9165 269.59 23.9997C269.59 22.0829 268.925 20.4486 267.596 19.0969C266.267 17.7446 264.66 17.0687 262.776 17.0687Z" fill="url(#paint14_linear_12_44)"/>
<path d="M279.554 23.7843C278.288 23.3523 277.262 22.7369 276.476 21.9377C275.69 21.1384 275.298 20.1479 275.298 18.9662C275.298 17.7845 275.706 16.811 276.521 15.9778C277.337 15.1446 278.325 14.7278 279.487 14.7278C280.649 14.7278 281.617 15.1404 282.436 15.9663C282.898 16.4207 283.285 17.1444 283.598 18.1367L281.498 18.9777C281.244 18.2807 281.013 17.8263 280.805 17.6139C280.44 17.2503 280 17.0687 279.487 17.0687C278.974 17.0687 278.522 17.2527 278.158 17.6199C277.793 17.9878 277.61 18.4362 277.61 18.9662C277.61 19.4962 277.793 19.947 278.158 20.3185C278.568 20.7275 279.133 21.1027 279.855 21.4433C281.256 21.9056 282.443 22.6329 283.419 23.6252C284.513 24.7233 285.061 26.0569 285.061 27.6246C285.061 29.1923 284.516 30.5313 283.425 31.641C282.334 32.7507 281.021 33.3055 279.487 33.3055C277.953 33.3055 276.631 32.7489 275.543 31.6349C274.672 30.7485 274.121 29.5257 273.89 27.9647L276.136 27.1351C276.277 28.4759 276.624 29.4265 277.175 29.9874C277.815 30.639 278.586 30.9645 279.487 30.9645C280.388 30.9645 281.159 30.639 281.799 29.9874C282.44 29.3357 282.76 28.5479 282.76 27.624C282.76 26.7001 282.44 25.9238 281.799 25.2715C281.188 24.6507 280.44 24.1546 279.554 23.7831V23.7843Z" fill="url(#paint15_linear_12_44)"/>
<defs>
<linearGradient id="paint0_linear_12_44" x1="0" y1="24" x2="59.7551" y2="24" gradientUnits="userSpaceOnUse">
<stop stop-color="#B69146"/>
<stop offset="0.259615" stop-color="#E6C046"/>
<stop offset="0.629808" stop-color="#F5EDB3"/>
<stop offset="1" stop-color="#F6ECAC"/>
</linearGradient>
<linearGradient id="paint1_linear_12_44" x1="0" y1="24" x2="59.7551" y2="24" gradientUnits="userSpaceOnUse">
<stop stop-color="#B69146"/>
<stop offset="0.259615" stop-color="#E6C046"/>
<stop offset="0.629808" stop-color="#F5EDB3"/>
<stop offset="1" stop-color="#F6ECAC"/>
</linearGradient>
<linearGradient id="paint2_linear_12_44" x1="0" y1="24" x2="59.7551" y2="24" gradientUnits="userSpaceOnUse">
<stop stop-color="#B69146"/>
<stop offset="0.259615" stop-color="#E6C046"/>
<stop offset="0.629808" stop-color="#F5EDB3"/>
<stop offset="1" stop-color="#F6ECAC"/>
</linearGradient>
<linearGradient id="paint3_linear_12_44" x1="79.347" y1="24" x2="285.061" y2="24" gradientUnits="userSpaceOnUse">
<stop stop-color="#B69146"/>
<stop offset="0.259615" stop-color="#E6C046"/>
<stop offset="0.629808" stop-color="#F5EDB3"/>
<stop offset="1" stop-color="#F6ECAC"/>
</linearGradient>
<linearGradient id="paint4_linear_12_44" x1="79.347" y1="24" x2="285.061" y2="24" gradientUnits="userSpaceOnUse">
<stop stop-color="#B69146"/>
<stop offset="0.259615" stop-color="#E6C046"/>
<stop offset="0.629808" stop-color="#F5EDB3"/>
<stop offset="1" stop-color="#F6ECAC"/>
</linearGradient>
<linearGradient id="paint5_linear_12_44" x1="79.347" y1="24" x2="285.061" y2="24" gradientUnits="userSpaceOnUse">
<stop stop-color="#B69146"/>
<stop offset="0.259615" stop-color="#E6C046"/>
<stop offset="0.629808" stop-color="#F5EDB3"/>
<stop offset="1" stop-color="#F6ECAC"/>
</linearGradient>
<linearGradient id="paint6_linear_12_44" x1="79.347" y1="24" x2="285.061" y2="24" gradientUnits="userSpaceOnUse">
<stop stop-color="#B69146"/>
<stop offset="0.259615" stop-color="#E6C046"/>
<stop offset="0.629808" stop-color="#F5EDB3"/>
<stop offset="1" stop-color="#F6ECAC"/>
</linearGradient>
<linearGradient id="paint7_linear_12_44" x1="79.347" y1="24" x2="285.061" y2="24" gradientUnits="userSpaceOnUse">
<stop stop-color="#B69146"/>
<stop offset="0.259615" stop-color="#E6C046"/>
<stop offset="0.629808" stop-color="#F5EDB3"/>
<stop offset="1" stop-color="#F6ECAC"/>
</linearGradient>
<linearGradient id="paint8_linear_12_44" x1="79.347" y1="24" x2="285.061" y2="24" gradientUnits="userSpaceOnUse">
<stop stop-color="#B69146"/>
<stop offset="0.259615" stop-color="#E6C046"/>
<stop offset="0.629808" stop-color="#F5EDB3"/>
<stop offset="1" stop-color="#F6ECAC"/>
</linearGradient>
<linearGradient id="paint9_linear_12_44" x1="79.347" y1="24" x2="285.061" y2="24" gradientUnits="userSpaceOnUse">
<stop stop-color="#B69146"/>
<stop offset="0.259615" stop-color="#E6C046"/>
<stop offset="0.629808" stop-color="#F5EDB3"/>
<stop offset="1" stop-color="#F6ECAC"/>
</linearGradient>
<linearGradient id="paint10_linear_12_44" x1="79.347" y1="24" x2="285.061" y2="24" gradientUnits="userSpaceOnUse">
<stop stop-color="#B69146"/>
<stop offset="0.259615" stop-color="#E6C046"/>
<stop offset="0.629808" stop-color="#F5EDB3"/>
<stop offset="1" stop-color="#F6ECAC"/>
</linearGradient>
<linearGradient id="paint11_linear_12_44" x1="79.347" y1="24" x2="285.061" y2="24" gradientUnits="userSpaceOnUse">
<stop stop-color="#B69146"/>
<stop offset="0.259615" stop-color="#E6C046"/>
<stop offset="0.629808" stop-color="#F5EDB3"/>
<stop offset="1" stop-color="#F6ECAC"/>
</linearGradient>
<linearGradient id="paint12_linear_12_44" x1="79.347" y1="24" x2="285.061" y2="24" gradientUnits="userSpaceOnUse">
<stop stop-color="#B69146"/>
<stop offset="0.259615" stop-color="#E6C046"/>
<stop offset="0.629808" stop-color="#F5EDB3"/>
<stop offset="1" stop-color="#F6ECAC"/>
</linearGradient>
<linearGradient id="paint13_linear_12_44" x1="79.347" y1="24" x2="285.061" y2="24" gradientUnits="userSpaceOnUse">
<stop stop-color="#B69146"/>
<stop offset="0.259615" stop-color="#E6C046"/>
<stop offset="0.629808" stop-color="#F5EDB3"/>
<stop offset="1" stop-color="#F6ECAC"/>
</linearGradient>
<linearGradient id="paint14_linear_12_44" x1="79.347" y1="24" x2="285.061" y2="24" gradientUnits="userSpaceOnUse">
<stop stop-color="#B69146"/>
<stop offset="0.259615" stop-color="#E6C046"/>
<stop offset="0.629808" stop-color="#F5EDB3"/>
<stop offset="1" stop-color="#F6ECAC"/>
</linearGradient>
<linearGradient id="paint15_linear_12_44" x1="79.347" y1="24" x2="285.061" y2="24" gradientUnits="userSpaceOnUse">
<stop stop-color="#B69146"/>
<stop offset="0.259615" stop-color="#E6C046"/>
<stop offset="0.629808" stop-color="#F5EDB3"/>
<stop offset="1" stop-color="#F6ECAC"/>
</linearGradient>
</defs>
</svg>
